<?xml version="1.0" encoding="UTF-8" standalone="no"?>
<svg
   width="481.889764pt"
   height="340.74752pt"
   viewBox="0 0 481.889764 340.74752"
   version="1.1"
   id="svg849"
   sodipodi:docname="ZnTPPZnOEP.svg"
   inkscape:version="1.2.2 (732a01da63, 2022-12-09)"
   xmlns:inkscape="http://www.inkscape.org/namespaces/inkscape"
   xmlns:sodipodi="http://sodipodi.sourceforge.net/DTD/sodipodi-0.dtd"
   xmlns:xlink="http://www.w3.org/1999/xlink"
   xmlns="http://www.w3.org/2000/svg"
   xmlns:svg="http://www.w3.org/2000/svg"
   xmlns:rdf="http://www.w3.org/1999/02/22-rdf-syntax-ns#"
   xmlns:cc="http://creativecommons.org/ns#"
   xmlns:dc="http://purl.org/dc/elements/1.1/">
  <sodipodi:namedview
     id="namedview851"
     pagecolor="#ffffff"
     bordercolor="#000000"
     borderopacity="0.25"
     inkscape:showpageshadow="2"
     inkscape:pageopacity="0.0"
     inkscape:pagecheckerboard="0"
     inkscape:deskcolor="#d1d1d1"
     inkscape:document-units="pt"
     showgrid="false"
     inkscape:zoom="1.7916491"
     inkscape:cx="321.49153"
     inkscape:cy="227.16502"
     inkscape:window-width="1920"
     inkscape:window-height="1017"
     inkscape:window-x="1912"
     inkscape:window-y="182"
     inkscape:window-maximized="1"
     inkscape:current-layer="svg849" />
  <metadata
     id="metadata431">
    <rdf:RDF>
      <cc:Work>
        <dc:type
           rdf:resource="http://purl.org/dc/dcmitype/StillImage" />
        <dc:date>2023-06-08T14:00:58.655104</dc:date>
        <dc:format>image/svg+xml</dc:format>
        <dc:creator>
          <cc:Agent>
            <dc:title>Matplotlib v3.7.1, https://matplotlib.org/</dc:title>
          </cc:Agent>
        </dc:creator>
      </cc:Work>
    </rdf:RDF>
  </metadata>
  <defs
     id="defs435">
    <rect
       x="477.77213"
       y="303.07274"
       width="83.163606"
       height="25.116525"
       id="rect1023" />
    <rect
       x="474.9814"
       y="26.232815"
       width="66.419256"
       height="21.767655"
       id="rect1017" />
    <rect
       x="305.86347"
       y="24.55838"
       width="73.675141"
       height="27.349105"
       id="rect1011" />
    <style
       type="text/css"
       id="style433">*{stroke-linejoin: round; stroke-linecap: butt}</style>
  </defs>
  <g
     id="figure_1">
    <g
       id="patch_1">
      <path
         d="M 0 340.74752  L 481.889764 340.74752  L 481.889764 0  L 0 0  z "
         style="fill: #f0f0f0"
         id="path437" />
    </g>
    <g
       id="axes_1">
      <g
         id="patch_2">
        <path
           d="M 61.41 287.88752  L 466.769764 287.88752  L 466.769764 15.12  L 61.41 15.12  z "
           style="fill: #f0f0f0"
           id="path440" />
      </g>
      <g
         id="matplotlib.axis_1">
        <g
           id="xtick_1">
          <g
             id="line2d_1">
            <path
               d="M 61.41 287.88752  L 61.41 15.12  "
               clip-path="url(#pcf4d89c02a)"
               style="fill: none; stroke: #cbcbcb"
               id="path443" />
          </g>
          <g
             id="line2d_2" />
          <g
             id="text_1">
            <!-- 2.0 -->
            <g
               transform="translate(50.277813 302.025332) scale(0.14 -0.14)"
               id="g458">
              <defs
                 id="defs450">
                <path
                   id="DejaVuSans-32"
                   d="M 1228 531  L 3431 531  L 3431 0  L 469 0  L 469 531  Q 828 903 1448 1529  Q 2069 2156 2228 2338  Q 2531 2678 2651 2914  Q 2772 3150 2772 3378  Q 2772 3750 2511 3984  Q 2250 4219 1831 4219  Q 1534 4219 1204 4116  Q 875 4013 500 3803  L 500 4441  Q 881 4594 1212 4672  Q 1544 4750 1819 4750  Q 2544 4750 2975 4387  Q 3406 4025 3406 3419  Q 3406 3131 3298 2873  Q 3191 2616 2906 2266  Q 2828 2175 2409 1742  Q 1991 1309 1228 531  z "
                   transform="scale(0.015625)" />
                <path
                   id="DejaVuSans-2e"
                   d="M 684 794  L 1344 794  L 1344 0  L 684 0  L 684 794  z "
                   transform="scale(0.015625)" />
                <path
                   id="DejaVuSans-30"
                   d="M 2034 4250  Q 1547 4250 1301 3770  Q 1056 3291 1056 2328  Q 1056 1369 1301 889  Q 1547 409 2034 409  Q 2525 409 2770 889  Q 3016 1369 3016 2328  Q 3016 3291 2770 3770  Q 2525 4250 2034 4250  z M 2034 4750  Q 2819 4750 3233 4129  Q 3647 3509 3647 2328  Q 3647 1150 3233 529  Q 2819 -91 2034 -91  Q 1250 -91 836 529  Q 422 1150 422 2328  Q 422 3509 836 4129  Q 1250 4750 2034 4750  z "
                   transform="scale(0.015625)" />
              </defs>
              <use
                 xlink:href="#DejaVuSans-32"
                 id="use452" />
              <use
                 xlink:href="#DejaVuSans-2e"
                 x="63.623047"
                 id="use454" />
              <use
                 xlink:href="#DejaVuSans-30"
                 x="95.410156"
                 id="use456" />
            </g>
          </g>
        </g>
        <g
           id="xtick_2">
          <g
             id="line2d_3">
            <path
               d="M 115.457969 287.88752  L 115.457969 15.12  "
               clip-path="url(#pcf4d89c02a)"
               style="fill: none; stroke: #cbcbcb"
               id="path462" />
          </g>
          <g
             id="line2d_4" />
          <g
             id="text_2">
            <!-- 2.2 -->
            <g
               transform="translate(104.325781 302.025332) scale(0.14 -0.14)"
               id="g472">
              <use
                 xlink:href="#DejaVuSans-32"
                 id="use466" />
              <use
                 xlink:href="#DejaVuSans-2e"
                 x="63.623047"
                 id="use468" />
              <use
                 xlink:href="#DejaVuSans-32"
                 x="95.410156"
                 id="use470" />
            </g>
          </g>
        </g>
        <g
           id="xtick_3">
          <g
             id="line2d_5">
            <path
               d="M 169.505937 287.88752  L 169.505937 15.12  "
               clip-path="url(#pcf4d89c02a)"
               style="fill: none; stroke: #cbcbcb"
               id="path476" />
          </g>
          <g
             id="line2d_6" />
          <g
             id="text_3">
            <!-- 2.4 -->
            <g
               transform="translate(158.37375 302.025332) scale(0.14 -0.14)"
               id="g489">
              <defs
                 id="defs481">
                <path
                   id="DejaVuSans-34"
                   d="M 2419 4116  L 825 1625  L 2419 1625  L 2419 4116  z M 2253 4666  L 3047 4666  L 3047 1625  L 3713 1625  L 3713 1100  L 3047 1100  L 3047 0  L 2419 0  L 2419 1100  L 313 1100  L 313 1709  L 2253 4666  z "
                   transform="scale(0.015625)" />
              </defs>
              <use
                 xlink:href="#DejaVuSans-32"
                 id="use483" />
              <use
                 xlink:href="#DejaVuSans-2e"
                 x="63.623047"
                 id="use485" />
              <use
                 xlink:href="#DejaVuSans-34"
                 x="95.410156"
                 id="use487" />
            </g>
          </g>
        </g>
        <g
           id="xtick_4">
          <g
             id="line2d_7">
            <path
               d="M 223.553906 287.88752  L 223.553906 15.12  "
               clip-path="url(#pcf4d89c02a)"
               style="fill: none; stroke: #cbcbcb"
               id="path493" />
          </g>
          <g
             id="line2d_8" />
          <g
             id="text_4">
            <!-- 2.6 -->
            <g
               transform="translate(212.421718 302.025332) scale(0.14 -0.14)"
               id="g506">
              <defs
                 id="defs498">
                <path
                   id="DejaVuSans-36"
                   d="M 2113 2584  Q 1688 2584 1439 2293  Q 1191 2003 1191 1497  Q 1191 994 1439 701  Q 1688 409 2113 409  Q 2538 409 2786 701  Q 3034 994 3034 1497  Q 3034 2003 2786 2293  Q 2538 2584 2113 2584  z M 3366 4563  L 3366 3988  Q 3128 4100 2886 4159  Q 2644 4219 2406 4219  Q 1781 4219 1451 3797  Q 1122 3375 1075 2522  Q 1259 2794 1537 2939  Q 1816 3084 2150 3084  Q 2853 3084 3261 2657  Q 3669 2231 3669 1497  Q 3669 778 3244 343  Q 2819 -91 2113 -91  Q 1303 -91 875 529  Q 447 1150 447 2328  Q 447 3434 972 4092  Q 1497 4750 2381 4750  Q 2619 4750 2861 4703  Q 3103 4656 3366 4563  z "
                   transform="scale(0.015625)" />
              </defs>
              <use
                 xlink:href="#DejaVuSans-32"
                 id="use500" />
              <use
                 xlink:href="#DejaVuSans-2e"
                 x="63.623047"
                 id="use502" />
              <use
                 xlink:href="#DejaVuSans-36"
                 x="95.410156"
                 id="use504" />
            </g>
          </g>
        </g>
        <g
           id="xtick_5">
          <g
             id="line2d_9">
            <path
               d="M 277.601874 287.88752  L 277.601874 15.12  "
               clip-path="url(#pcf4d89c02a)"
               style="fill: none; stroke: #cbcbcb"
               id="path510" />
          </g>
          <g
             id="line2d_10" />
          <g
             id="text_5">
            <!-- 2.8 -->
            <g
               transform="translate(266.469687 302.025332) scale(0.14 -0.14)"
               id="g523">
              <defs
                 id="defs515">
                <path
                   id="DejaVuSans-38"
                   d="M 2034 2216  Q 1584 2216 1326 1975  Q 1069 1734 1069 1313  Q 1069 891 1326 650  Q 1584 409 2034 409  Q 2484 409 2743 651  Q 3003 894 3003 1313  Q 3003 1734 2745 1975  Q 2488 2216 2034 2216  z M 1403 2484  Q 997 2584 770 2862  Q 544 3141 544 3541  Q 544 4100 942 4425  Q 1341 4750 2034 4750  Q 2731 4750 3128 4425  Q 3525 4100 3525 3541  Q 3525 3141 3298 2862  Q 3072 2584 2669 2484  Q 3125 2378 3379 2068  Q 3634 1759 3634 1313  Q 3634 634 3220 271  Q 2806 -91 2034 -91  Q 1263 -91 848 271  Q 434 634 434 1313  Q 434 1759 690 2068  Q 947 2378 1403 2484  z M 1172 3481  Q 1172 3119 1398 2916  Q 1625 2713 2034 2713  Q 2441 2713 2670 2916  Q 2900 3119 2900 3481  Q 2900 3844 2670 4047  Q 2441 4250 2034 4250  Q 1625 4250 1398 4047  Q 1172 3844 1172 3481  z "
                   transform="scale(0.015625)" />
              </defs>
              <use
                 xlink:href="#DejaVuSans-32"
                 id="use517" />
              <use
                 xlink:href="#DejaVuSans-2e"
                 x="63.623047"
                 id="use519" />
              <use
                 xlink:href="#DejaVuSans-38"
                 x="95.410156"
                 id="use521" />
            </g>
          </g>
        </g>
        <g
           id="xtick_6">
          <g
             id="line2d_11">
            <path
               d="M 331.649843 287.88752  L 331.649843 15.12  "
               clip-path="url(#pcf4d89c02a)"
               style="fill: none; stroke: #cbcbcb"
               id="path527" />
          </g>
          <g
             id="line2d_12" />
          <g
             id="text_6">
            <!-- 3.0 -->
            <g
               transform="translate(320.517655 302.025332) scale(0.14 -0.14)"
               id="g540">
              <defs
                 id="defs532">
                <path
                   id="DejaVuSans-33"
                   d="M 2597 2516  Q 3050 2419 3304 2112  Q 3559 1806 3559 1356  Q 3559 666 3084 287  Q 2609 -91 1734 -91  Q 1441 -91 1130 -33  Q 819 25 488 141  L 488 750  Q 750 597 1062 519  Q 1375 441 1716 441  Q 2309 441 2620 675  Q 2931 909 2931 1356  Q 2931 1769 2642 2001  Q 2353 2234 1838 2234  L 1294 2234  L 1294 2753  L 1863 2753  Q 2328 2753 2575 2939  Q 2822 3125 2822 3475  Q 2822 3834 2567 4026  Q 2313 4219 1838 4219  Q 1578 4219 1281 4162  Q 984 4106 628 3988  L 628 4550  Q 988 4650 1302 4700  Q 1616 4750 1894 4750  Q 2613 4750 3031 4423  Q 3450 4097 3450 3541  Q 3450 3153 3228 2886  Q 3006 2619 2597 2516  z "
                   transform="scale(0.015625)" />
              </defs>
              <use
                 xlink:href="#DejaVuSans-33"
                 id="use534" />
              <use
                 xlink:href="#DejaVuSans-2e"
                 x="63.623047"
                 id="use536" />
              <use
                 xlink:href="#DejaVuSans-30"
                 x="95.410156"
                 id="use538" />
            </g>
          </g>
        </g>
        <g
           id="xtick_7">
          <g
             id="line2d_13">
            <path
               d="M 385.697811 287.88752  L 385.697811 15.12  "
               clip-path="url(#pcf4d89c02a)"
               style="fill: none; stroke: #cbcbcb"
               id="path544" />
          </g>
          <g
             id="line2d_14" />
          <g
             id="text_7">
            <!-- 3.2 -->
            <g
               transform="translate(374.565624 302.025332) scale(0.14 -0.14)"
               id="g554">
              <use
                 xlink:href="#DejaVuSans-33"
                 id="use548" />
              <use
                 xlink:href="#DejaVuSans-2e"
                 x="63.623047"
                 id="use550" />
              <use
                 xlink:href="#DejaVuSans-32"
                 x="95.410156"
                 id="use552" />
            </g>
          </g>
        </g>
        <g
           id="xtick_8">
          <g
             id="line2d_15">
            <path
               d="M 439.74578 287.88752  L 439.74578 15.12  "
               clip-path="url(#pcf4d89c02a)"
               style="fill: none; stroke: #cbcbcb"
               id="path558" />
          </g>
          <g
             id="line2d_16" />
          <g
             id="text_8">
            <!-- 3.4 -->
            <g
               transform="translate(428.613592 302.025332) scale(0.14 -0.14)"
               id="g568">
              <use
                 xlink:href="#DejaVuSans-33"
                 id="use562" />
              <use
                 xlink:href="#DejaVuSans-2e"
                 x="63.623047"
                 id="use564" />
              <use
                 xlink:href="#DejaVuSans-34"
                 x="95.410156"
                 id="use566" />
            </g>
          </g>
        </g>
        <g
           id="text_9">
          <!-- energy / eV -->
          <g
             transform="translate(215.734757 321.70227) scale(0.168 -0.168)"
             id="g604">
            <defs
               id="defs580">
              <path
                 id="DejaVuSans-65"
                 d="M 3597 1894  L 3597 1613  L 953 1613  Q 991 1019 1311 708  Q 1631 397 2203 397  Q 2534 397 2845 478  Q 3156 559 3463 722  L 3463 178  Q 3153 47 2828 -22  Q 2503 -91 2169 -91  Q 1331 -91 842 396  Q 353 884 353 1716  Q 353 2575 817 3079  Q 1281 3584 2069 3584  Q 2775 3584 3186 3129  Q 3597 2675 3597 1894  z M 3022 2063  Q 3016 2534 2758 2815  Q 2500 3097 2075 3097  Q 1594 3097 1305 2825  Q 1016 2553 972 2059  L 3022 2063  z "
                 transform="scale(0.015625)" />
              <path
                 id="DejaVuSans-6e"
                 d="M 3513 2113  L 3513 0  L 2938 0  L 2938 2094  Q 2938 2591 2744 2837  Q 2550 3084 2163 3084  Q 1697 3084 1428 2787  Q 1159 2491 1159 1978  L 1159 0  L 581 0  L 581 3500  L 1159 3500  L 1159 2956  Q 1366 3272 1645 3428  Q 1925 3584 2291 3584  Q 2894 3584 3203 3211  Q 3513 2838 3513 2113  z "
                 transform="scale(0.015625)" />
              <path
                 id="DejaVuSans-72"
                 d="M 2631 2963  Q 2534 3019 2420 3045  Q 2306 3072 2169 3072  Q 1681 3072 1420 2755  Q 1159 2438 1159 1844  L 1159 0  L 581 0  L 581 3500  L 1159 3500  L 1159 2956  Q 1341 3275 1631 3429  Q 1922 3584 2338 3584  Q 2397 3584 2469 3576  Q 2541 3569 2628 3553  L 2631 2963  z "
                 transform="scale(0.015625)" />
              <path
                 id="DejaVuSans-67"
                 d="M 2906 1791  Q 2906 2416 2648 2759  Q 2391 3103 1925 3103  Q 1463 3103 1205 2759  Q 947 2416 947 1791  Q 947 1169 1205 825  Q 1463 481 1925 481  Q 2391 481 2648 825  Q 2906 1169 2906 1791  z M 3481 434  Q 3481 -459 3084 -895  Q 2688 -1331 1869 -1331  Q 1566 -1331 1297 -1286  Q 1028 -1241 775 -1147  L 775 -588  Q 1028 -725 1275 -790  Q 1522 -856 1778 -856  Q 2344 -856 2625 -561  Q 2906 -266 2906 331  L 2906 616  Q 2728 306 2450 153  Q 2172 0 1784 0  Q 1141 0 747 490  Q 353 981 353 1791  Q 353 2603 747 3093  Q 1141 3584 1784 3584  Q 2172 3584 2450 3431  Q 2728 3278 2906 2969  L 2906 3500  L 3481 3500  L 3481 434  z "
                 transform="scale(0.015625)" />
              <path
                 id="DejaVuSans-79"
                 d="M 2059 -325  Q 1816 -950 1584 -1140  Q 1353 -1331 966 -1331  L 506 -1331  L 506 -850  L 844 -850  Q 1081 -850 1212 -737  Q 1344 -625 1503 -206  L 1606 56  L 191 3500  L 800 3500  L 1894 763  L 2988 3500  L 3597 3500  L 2059 -325  z "
                 transform="scale(0.015625)" />
              <path
                 id="DejaVuSans-20"
                 transform="scale(0.015625)" />
              <path
                 id="DejaVuSans-2f"
                 d="M 1625 4666  L 2156 4666  L 531 -594  L 0 -594  L 1625 4666  z "
                 transform="scale(0.015625)" />
              <path
                 id="DejaVuSans-56"
                 d="M 1831 0  L 50 4666  L 709 4666  L 2188 738  L 3669 4666  L 4325 4666  L 2547 0  L 1831 0  z "
                 transform="scale(0.015625)" />
            </defs>
            <use
               xlink:href="#DejaVuSans-65"
               id="use582" />
            <use
               xlink:href="#DejaVuSans-6e"
               x="61.523438"
               id="use584" />
            <use
               xlink:href="#DejaVuSans-65"
               x="124.902344"
               id="use586" />
            <use
               xlink:href="#DejaVuSans-72"
               x="186.425781"
               id="use588" />
            <use
               xlink:href="#DejaVuSans-67"
               x="225.789062"
               id="use590" />
            <use
               xlink:href="#DejaVuSans-79"
               x="289.265625"
               id="use592" />
            <use
               xlink:href="#DejaVuSans-20"
               x="348.445312"
               id="use594" />
            <use
               xlink:href="#DejaVuSans-2f"
               x="380.232422"
               id="use596" />
            <use
               xlink:href="#DejaVuSans-20"
               x="413.923828"
               id="use598" />
            <use
               xlink:href="#DejaVuSans-65"
               x="445.710938"
               id="use600" />
            <use
               xlink:href="#DejaVuSans-56"
               x="507.234375"
               id="use602" />
          </g>
        </g>
      </g>
      <g
         id="matplotlib.axis_2">
        <g
           id="ytick_1">
          <g
             id="line2d_17">
            <path
               d="M 61.41 276.071826  L 466.769764 276.071826  "
               clip-path="url(#pcf4d89c02a)"
               style="fill: none; stroke: #cbcbcb"
               id="path608" />
          </g>
          <g
             id="line2d_18" />
          <g
             id="text_10">
            <!-- 0.0 -->
            <g
               transform="translate(35.645625 281.390732) scale(0.14 -0.14)"
               id="g618">
              <use
                 xlink:href="#DejaVuSans-30"
                 id="use612" />
              <use
                 xlink:href="#DejaVuSans-2e"
                 x="63.623047"
                 id="use614" />
              <use
                 xlink:href="#DejaVuSans-30"
                 x="95.410156"
                 id="use616" />
            </g>
          </g>
        </g>
        <g
           id="ytick_2">
          <g
             id="line2d_19">
            <path
               d="M 61.41 228.809049  L 466.769764 228.809049  "
               clip-path="url(#pcf4d89c02a)"
               style="fill: none; stroke: #cbcbcb"
               id="path622" />
          </g>
          <g
             id="line2d_20" />
          <g
             id="text_11">
            <!-- 0.2 -->
            <g
               transform="translate(35.645625 234.127955) scale(0.14 -0.14)"
               id="g632">
              <use
                 xlink:href="#DejaVuSans-30"
                 id="use626" />
              <use
                 xlink:href="#DejaVuSans-2e"
                 x="63.623047"
                 id="use628" />
              <use
                 xlink:href="#DejaVuSans-32"
                 x="95.410156"
                 id="use630" />
            </g>
          </g>
        </g>
        <g
           id="ytick_3">
          <g
             id="line2d_21">
            <path
               d="M 61.41 181.546272  L 466.769764 181.546272  "
               clip-path="url(#pcf4d89c02a)"
               style="fill: none; stroke: #cbcbcb"
               id="path636" />
          </g>
          <g
             id="line2d_22" />
          <g
             id="text_12">
            <!-- 0.4 -->
            <g
               transform="translate(35.645625 186.865179) scale(0.14 -0.14)"
               id="g646">
              <use
                 xlink:href="#DejaVuSans-30"
                 id="use640" />
              <use
                 xlink:href="#DejaVuSans-2e"
                 x="63.623047"
                 id="use642" />
              <use
                 xlink:href="#DejaVuSans-34"
                 x="95.410156"
                 id="use644" />
            </g>
          </g>
        </g>
        <g
           id="ytick_4">
          <g
             id="line2d_23">
            <path
               d="M 61.41 134.283496  L 466.769764 134.283496  "
               clip-path="url(#pcf4d89c02a)"
               style="fill: none; stroke: #cbcbcb"
               id="path650" />
          </g>
          <g
             id="line2d_24" />
          <g
             id="text_13">
            <!-- 0.6 -->
            <g
               transform="translate(35.645625 139.602402) scale(0.14 -0.14)"
               id="g660">
              <use
                 xlink:href="#DejaVuSans-30"
                 id="use654" />
              <use
                 xlink:href="#DejaVuSans-2e"
                 x="63.623047"
                 id="use656" />
              <use
                 xlink:href="#DejaVuSans-36"
                 x="95.410156"
                 id="use658" />
            </g>
          </g>
        </g>
        <g
           id="ytick_5">
          <g
             id="line2d_25">
            <path
               d="M 61.41 87.020719  L 466.769764 87.020719  "
               clip-path="url(#pcf4d89c02a)"
               style="fill: none; stroke: #cbcbcb"
               id="path664" />
          </g>
          <g
             id="line2d_26" />
          <g
             id="text_14">
            <!-- 0.8 -->
            <g
               transform="translate(35.645625 92.339625) scale(0.14 -0.14)"
               id="g674">
              <use
                 xlink:href="#DejaVuSans-30"
                 id="use668" />
              <use
                 xlink:href="#DejaVuSans-2e"
                 x="63.623047"
                 id="use670" />
              <use
                 xlink:href="#DejaVuSans-38"
                 x="95.410156"
                 id="use672" />
            </g>
          </g>
        </g>
        <g
           id="ytick_6">
          <g
             id="line2d_27">
            <path
               d="M 61.41 39.757943  L 466.769764 39.757943  "
               clip-path="url(#pcf4d89c02a)"
               style="fill: none; stroke: #cbcbcb"
               id="path678" />
          </g>
          <g
             id="line2d_28" />
          <g
             id="text_15">
            <!-- 1.0 -->
            <g
               transform="translate(35.645625 45.076849) scale(0.14 -0.14)"
               id="g691">
              <defs
                 id="defs683">
                <path
                   id="DejaVuSans-31"
                   d="M 794 531  L 1825 531  L 1825 4091  L 703 3866  L 703 4441  L 1819 4666  L 2450 4666  L 2450 531  L 3481 531  L 3481 0  L 794 0  L 794 531  z "
                   transform="scale(0.015625)" />
              </defs>
              <use
                 xlink:href="#DejaVuSans-31"
                 id="use685" />
              <use
                 xlink:href="#DejaVuSans-2e"
                 x="63.623047"
                 id="use687" />
              <use
                 xlink:href="#DejaVuSans-30"
                 x="95.410156"
                 id="use689" />
            </g>
          </g>
        </g>
        <g
           id="text_16">
          <!-- norm. absorbance / a.u -->
          <g
             transform="translate(28.15175 249.144572) rotate(-90) scale(0.168 -0.168)"
             id="g748">
            <defs
               id="defs702">
              <path
                 id="DejaVuSans-6f"
                 d="M 1959 3097  Q 1497 3097 1228 2736  Q 959 2375 959 1747  Q 959 1119 1226 758  Q 1494 397 1959 397  Q 2419 397 2687 759  Q 2956 1122 2956 1747  Q 2956 2369 2687 2733  Q 2419 3097 1959 3097  z M 1959 3584  Q 2709 3584 3137 3096  Q 3566 2609 3566 1747  Q 3566 888 3137 398  Q 2709 -91 1959 -91  Q 1206 -91 779 398  Q 353 888 353 1747  Q 353 2609 779 3096  Q 1206 3584 1959 3584  z "
                 transform="scale(0.015625)" />
              <path
                 id="DejaVuSans-6d"
                 d="M 3328 2828  Q 3544 3216 3844 3400  Q 4144 3584 4550 3584  Q 5097 3584 5394 3201  Q 5691 2819 5691 2113  L 5691 0  L 5113 0  L 5113 2094  Q 5113 2597 4934 2840  Q 4756 3084 4391 3084  Q 3944 3084 3684 2787  Q 3425 2491 3425 1978  L 3425 0  L 2847 0  L 2847 2094  Q 2847 2600 2669 2842  Q 2491 3084 2119 3084  Q 1678 3084 1418 2786  Q 1159 2488 1159 1978  L 1159 0  L 581 0  L 581 3500  L 1159 3500  L 1159 2956  Q 1356 3278 1631 3431  Q 1906 3584 2284 3584  Q 2666 3584 2933 3390  Q 3200 3197 3328 2828  z "
                 transform="scale(0.015625)" />
              <path
                 id="DejaVuSans-61"
                 d="M 2194 1759  Q 1497 1759 1228 1600  Q 959 1441 959 1056  Q 959 750 1161 570  Q 1363 391 1709 391  Q 2188 391 2477 730  Q 2766 1069 2766 1631  L 2766 1759  L 2194 1759  z M 3341 1997  L 3341 0  L 2766 0  L 2766 531  Q 2569 213 2275 61  Q 1981 -91 1556 -91  Q 1019 -91 701 211  Q 384 513 384 1019  Q 384 1609 779 1909  Q 1175 2209 1959 2209  L 2766 2209  L 2766 2266  Q 2766 2663 2505 2880  Q 2244 3097 1772 3097  Q 1472 3097 1187 3025  Q 903 2953 641 2809  L 641 3341  Q 956 3463 1253 3523  Q 1550 3584 1831 3584  Q 2591 3584 2966 3190  Q 3341 2797 3341 1997  z "
                 transform="scale(0.015625)" />
              <path
                 id="DejaVuSans-62"
                 d="M 3116 1747  Q 3116 2381 2855 2742  Q 2594 3103 2138 3103  Q 1681 3103 1420 2742  Q 1159 2381 1159 1747  Q 1159 1113 1420 752  Q 1681 391 2138 391  Q 2594 391 2855 752  Q 3116 1113 3116 1747  z M 1159 2969  Q 1341 3281 1617 3432  Q 1894 3584 2278 3584  Q 2916 3584 3314 3078  Q 3713 2572 3713 1747  Q 3713 922 3314 415  Q 2916 -91 2278 -91  Q 1894 -91 1617 61  Q 1341 213 1159 525  L 1159 0  L 581 0  L 581 4863  L 1159 4863  L 1159 2969  z "
                 transform="scale(0.015625)" />
              <path
                 id="DejaVuSans-73"
                 d="M 2834 3397  L 2834 2853  Q 2591 2978 2328 3040  Q 2066 3103 1784 3103  Q 1356 3103 1142 2972  Q 928 2841 928 2578  Q 928 2378 1081 2264  Q 1234 2150 1697 2047  L 1894 2003  Q 2506 1872 2764 1633  Q 3022 1394 3022 966  Q 3022 478 2636 193  Q 2250 -91 1575 -91  Q 1294 -91 989 -36  Q 684 19 347 128  L 347 722  Q 666 556 975 473  Q 1284 391 1588 391  Q 1994 391 2212 530  Q 2431 669 2431 922  Q 2431 1156 2273 1281  Q 2116 1406 1581 1522  L 1381 1569  Q 847 1681 609 1914  Q 372 2147 372 2553  Q 372 3047 722 3315  Q 1072 3584 1716 3584  Q 2034 3584 2315 3537  Q 2597 3491 2834 3397  z "
                 transform="scale(0.015625)" />
              <path
                 id="DejaVuSans-63"
                 d="M 3122 3366  L 3122 2828  Q 2878 2963 2633 3030  Q 2388 3097 2138 3097  Q 1578 3097 1268 2742  Q 959 2388 959 1747  Q 959 1106 1268 751  Q 1578 397 2138 397  Q 2388 397 2633 464  Q 2878 531 3122 666  L 3122 134  Q 2881 22 2623 -34  Q 2366 -91 2075 -91  Q 1284 -91 818 406  Q 353 903 353 1747  Q 353 2603 823 3093  Q 1294 3584 2113 3584  Q 2378 3584 2631 3529  Q 2884 3475 3122 3366  z "
                 transform="scale(0.015625)" />
              <path
                 id="DejaVuSans-75"
                 d="M 544 1381  L 544 3500  L 1119 3500  L 1119 1403  Q 1119 906 1312 657  Q 1506 409 1894 409  Q 2359 409 2629 706  Q 2900 1003 2900 1516  L 2900 3500  L 3475 3500  L 3475 0  L 2900 0  L 2900 538  Q 2691 219 2414 64  Q 2138 -91 1772 -91  Q 1169 -91 856 284  Q 544 659 544 1381  z M 1991 3584  L 1991 3584  z "
                 transform="scale(0.015625)" />
            </defs>
            <use
               xlink:href="#DejaVuSans-6e"
               id="use704" />
            <use
               xlink:href="#DejaVuSans-6f"
               x="63.378906"
               id="use706" />
            <use
               xlink:href="#DejaVuSans-72"
               x="124.560547"
               id="use708" />
            <use
               xlink:href="#DejaVuSans-6d"
               x="163.923828"
               id="use710" />
            <use
               xlink:href="#DejaVuSans-2e"
               x="261.335938"
               id="use712" />
            <use
               xlink:href="#DejaVuSans-20"
               x="293.123047"
               id="use714" />
            <use
               xlink:href="#DejaVuSans-61"
               x="324.910156"
               id="use716" />
            <use
               xlink:href="#DejaVuSans-62"
               x="386.189453"
               id="use718" />
            <use
               xlink:href="#DejaVuSans-73"
               x="449.666016"
               id="use720" />
            <use
               xlink:href="#DejaVuSans-6f"
               x="501.765625"
               id="use722" />
            <use
               xlink:href="#DejaVuSans-72"
               x="562.947266"
               id="use724" />
            <use
               xlink:href="#DejaVuSans-62"
               x="604.060547"
               id="use726" />
            <use
               xlink:href="#DejaVuSans-61"
               x="667.537109"
               id="use728" />
            <use
               xlink:href="#DejaVuSans-6e"
               x="728.816406"
               id="use730" />
            <use
               xlink:href="#DejaVuSans-63"
               x="792.195312"
               id="use732" />
            <use
               xlink:href="#DejaVuSans-65"
               x="847.175781"
               id="use734" />
            <use
               xlink:href="#DejaVuSans-20"
               x="908.699219"
               id="use736" />
            <use
               xlink:href="#DejaVuSans-2f"
               x="940.486328"
               id="use738" />
            <use
               xlink:href="#DejaVuSans-20"
               x="974.177734"
               id="use740" />
            <use
               xlink:href="#DejaVuSans-61"
               x="1005.964844"
               id="use742" />
            <use
               xlink:href="#DejaVuSans-2e"
               x="1067.244141"
               id="use744" />
            <use
               xlink:href="#DejaVuSans-75"
               x="1099.03125"
               id="use746" />
          </g>
        </g>
      </g>
      <g
         id="line2d_29">
        <path
           d="M -1 283.039359  L 0.264653 283.023329  L 3.023412 282.979029  L 3.718071 283.047872  L 4.414734 282.942928  L 7.22161 283.158  L 10.061268 283.160334  L 10.776371 283.269959  L 12.21287 283.14998  L 14.383485 283.145253  L 16.573366 283.266489  L 18.782771 283.144415  L 19.523622 283.212157  L 21.011961 283.179843  L 37.193339 282.851557  L 37.990041 282.715847  L 38.789206 282.797841  L 40.39497 282.747053  L 42.010723 282.73705  L 42.822375 282.626412  L 43.636559 282.797841  L 44.453288 282.680566  L 51.920335 282.683202  L 52.763176 282.588189  L 54.456911 282.565781  L 55.307831 282.493638  L 58.738826 282.58064  L 63.090028 282.354835  L 67.512212 281.589963  L 69.30135 281.112738  L 73.825864 279.903561  L 76.576588 279.494498  L 78.42566 279.468577  L 79.354819 279.575264  L 80.287081 279.487927  L 81.22246 279.725792  L 82.160973 279.762604  L 89.7838 281.289302  L 91.721972 281.503872  L 93.673396 281.632582  L 94.654121 281.523205  L 95.63821 281.580898  L 97.61655 281.353388  L 98.610837 281.299513  L 101.614375 280.623036  L 105.668016 279.181016  L 108.745583 277.577852  L 109.77865 277.176785  L 112.899754 275.685482  L 114.998937 275.006911  L 118.175774 274.381961  L 119.242284 274.390606  L 120.312609 274.281275  L 121.386771 274.417121  L 125.722197 275.4833  L 130.120683 277.046882  L 131.23032 277.597878  L 137.973966 280.08789  L 143.708573 281.397589  L 144.868309 281.519242  L 146.032372 281.775723  L 148.373578 281.902505  L 149.55077 282.050247  L 150.732388 282.011921  L 155.503615 282.237819  L 162.797561 282.263418  L 164.029552 282.1474  L 165.266281 282.353696  L 166.507777 282.262999  L 167.754065 282.393015  L 170.261134 282.34956  L 171.52197 282.520064  L 195.084646 283.20366  L 196.443828 283.123767  L 199.178701 283.196419  L 200.554458 283.180501  L 201.935808 283.286353  L 206.113756 283.227177  L 208.927651 283.289105  L 210.343283 283.241059  L 211.764753 283.338523  L 213.192097 283.290541  L 216.064553 283.369929  L 226.308636 283.477476  L 230.791973 283.578422  L 232.29911 283.676658  L 233.812661 283.536264  L 236.859167 283.636661  L 238.392205 283.564071  L 239.931823 283.661831  L 241.478062 283.585179  L 249.310103 283.684669  L 262.201781 283.41575  L 265.496321 283.054217  L 268.820276 282.321747  L 272.174043 280.59567  L 273.862231 278.951888  L 275.558024 276.901436  L 277.261472 273.625433  L 278.972629 268.96753  L 280.691545 262.611532  L 282.418275 253.604449  L 284.152872 241.325918  L 285.895389 225.190618  L 287.645882 204.796643  L 289.404403 180.328049  L 292.945759 123.139714  L 294.728704 94.394597  L 296.519904 69.54371  L 298.319416 51.327557  L 300.127298 40.934832  L 301.943608 39.757943  L 303.768405 46.639773  L 305.60175 60.815345  L 307.443701 79.823882  L 311.15367 125.839729  L 313.02181 149.148416  L 314.898805 170.863421  L 316.784715 190.527849  L 318.679607 207.714487  L 320.583543 221.989552  L 322.496589 233.488475  L 324.41881 242.809422  L 326.350273 249.457951  L 328.291044 254.534585  L 330.241191 257.957402  L 332.200781 260.083461  L 334.169884 261.376409  L 336.148569 262.155245  L 342.142821 263.559951  L 344.160542 264.466066  L 346.188203 265.567641  L 348.225877 266.986821  L 352.331562 270.292644  L 354.399724 272.17749  L 358.567071 275.343241  L 360.666412 276.858479  L 362.776301 278.211674  L 367.028049 280.195109  L 371.322961 281.452835  L 375.661699 282.331158  L 380.044937 282.806105  L 384.473363 283.548942  L 386.70474 283.801593  L 400.338983 286.160447  L 402.653217 286.82848  L 407.318417 287.755058  L 409.669579 288.311238  L 412.033247 289.02651  L 414.409522 289.532252  L 416.798504 290.505838  L 419.200295 291.063265  L 421.614999 291.902117  L 424.042721 292.940169  L 426.483565 293.693465  L 431.40505 295.978083  L 433.885908 297.318304  L 436.380322 298.824894  L 438.888404 300.151516  L 446.495792 304.879263  L 456.837305 313.465726  L 459.458894 315.902666  L 467.412526 324.269996  L 470.093778 327.423426  L 472.790266 330.343222  L 478.229465 337.526178  L 480.972443 333.644047  L 482.889764 331.223334  L 482.889764 331.223334  "
           clip-path="url(#pcf4d89c02a)"
           style="fill: none; stroke: #008fd5; stroke-width: 2"
           id="path752" />
      </g>
      <g
         id="line2d_30">
        <path
           d="M -1 277.446797  L 5.81411 277.387497  L 9.348249 277.416179  L 13.657819 277.372875  L 16.573366 277.355764  L 18.782771 277.25866  L 20.266682 277.230818  L 30.907031 277.082665  L 34.030931 277.02194  L 42.822375 276.861225  L 50.242641 276.854519  L 61.341126 276.823683  L 67.512212 276.869852  L 84.047462 276.512613  L 86.901096 276.239697  L 88.819641 275.8706  L 89.7838 275.596024  L 91.721972 274.699406  L 92.696019 274.022257  L 93.673396 273.198071  L 94.654121 272.048336  L 95.63821 270.683424  L 96.62568 269.041363  L 98.610837 264.817874  L 101.614375 257.608336  L 102.622507 255.562191  L 103.634146 253.982644  L 104.649309 252.927793  L 105.668016 252.505626  L 106.690285 252.543695  L 107.716134 253.064135  L 108.745583 253.929969  L 109.77865 255.210386  L 110.815355 256.739113  L 114.998937 263.795822  L 116.054121 265.30611  L 117.11306 266.595168  L 118.175774 267.678053  L 119.242284 268.547677  L 120.312609 269.153187  L 121.386771 269.587155  L 122.46479 269.795798  L 123.546687 269.850206  L 124.632482 269.723683  L 125.722197 269.453113  L 127.913472 268.571541  L 130.120683 267.319766  L 131.23032 266.529461  L 133.461764 264.517773  L 136.839695 260.829327  L 139.112423 258.52012  L 140.255089 257.614284  L 141.401986 256.885263  L 142.55314 256.365459  L 143.708573 256.040094  L 144.868309 255.900152  L 146.032372 256.01711  L 147.200787 256.387297  L 148.373578 256.90087  L 150.732388 258.439775  L 153.108999 260.420133  L 160.347686 267.341162  L 162.797561 269.214884  L 165.266281 270.769376  L 167.754065 271.933214  L 170.261134 272.783718  L 172.787713 273.388128  L 176.614664 273.87344  L 179.191027 273.979428  L 181.787717 274.033902  L 193.730923 274.05592  L 197.808502 274.205159  L 206.113756 274.617207  L 213.192097 274.997118  L 221.881576 275.355573  L 226.308636 275.436572  L 235.332666 275.529144  L 246.156944 275.771574  L 262.201781 276.050525  L 275.558024 276.021627  L 285.895389 275.611607  L 289.404403 275.325452  L 292.945759 274.839799  L 296.519904 273.919611  L 298.319416 273.242837  L 300.127298 272.268417  L 301.943608 270.978373  L 303.768405 269.130733  L 305.60175 266.551145  L 307.443701 262.97305  L 309.294321 257.922234  L 311.15367 251.072502  L 313.02181 241.76649  L 314.898805 229.485536  L 316.784715 213.811284  L 318.679607 194.641082  L 320.583543 172.135183  L 326.350273 98.765196  L 328.291044 78.588595  L 330.241191 62.775533  L 332.200781 51.522913  L 334.169884 44.497999  L 336.148569 40.800649  L 338.136907 39.757943  L 340.134967 40.895331  L 342.142821 43.888863  L 344.160542 48.709539  L 346.188203 55.348591  L 348.225877 63.933173  L 350.273638 74.576097  L 352.331562 87.241366  L 354.399724 101.420645  L 360.666412 146.6003  L 362.776301 159.979231  L 364.89682 171.656507  L 367.028049 181.60694  L 369.170068 189.737183  L 371.322961 196.383205  L 373.48681 201.77822  L 375.661699 206.250349  L 377.847713 210.07366  L 380.044937 213.521466  L 384.473363 219.834551  L 388.947679 225.981565  L 393.468603 231.85577  L 398.036866 237.231245  L 400.338983 239.708811  L 402.653217 241.988096  L 404.979662 244.043191  L 407.318417 245.83777  L 409.669579 247.491532  L 412.033247 248.928561  L 414.409522 250.206168  L 416.798504 251.25929  L 421.614999 252.976925  L 424.042721 253.717933  L 428.937639 254.813937  L 436.380322 256.106437  L 446.495792 257.314764  L 459.458894 258.744417  L 467.412526 260.044617  L 472.790266 261.186327  L 478.229465 262.529129  L 480.972443 259.063568  L 482.889764 259.977654  L 482.889764 259.977654  "
           clip-path="url(#pcf4d89c02a)"
           style="fill: none; stroke: #fc4f30; stroke-width: 2"
           id="path755" />
      </g>
      <g
         id="patch_3">
        <path
           d="M 61.41 287.88752  L 61.41 15.12  "
           style="fill: none; stroke: #f0f0f0; stroke-width: 3; stroke-linejoin: miter; stroke-linecap: square"
           id="path758" />
      </g>
      <g
         id="patch_4">
        <path
           d="M 466.769764 287.88752  L 466.769764 15.12  "
           style="fill: none; stroke: #f0f0f0; stroke-width: 3; stroke-linejoin: miter; stroke-linecap: square"
           id="path761" />
      </g>
      <g
         id="patch_5">
        <path
           d="M 61.41 287.88752  L 466.769764 287.88752  "
           style="fill: none; stroke: #f0f0f0; stroke-width: 3; stroke-linejoin: miter; stroke-linecap: square"
           id="path764" />
      </g>
      <g
         id="patch_6">
        <path
           d="M 61.41 15.12  L 466.769764 15.12  "
           style="fill: none; stroke: #f0f0f0; stroke-width: 3; stroke-linejoin: miter; stroke-linecap: square"
           id="path767" />
      </g>
      <g
         id="legend_1">
        <g
           id="patch_7">
          <path
             d="M 71.21 67.41875  L 204.520625 67.41875  Q 207.320625 67.41875 207.320625 64.61875  L 207.320625 24.92  Q 207.320625 22.12 204.520625 22.12  L 71.21 22.12  Q 68.41 22.12 68.41 24.92  L 68.41 64.61875  Q 68.41 67.41875 71.21 67.41875  z "
             style="fill: #f0f0f0; opacity: 0.8; stroke: #cccccc; stroke-width: 0.5; stroke-linejoin: miter"
             id="path770" />
        </g>
        <g
           id="line2d_31">
          <path
             d="M 74.01 33.457813  L 88.01 33.457813  L 102.01 33.457813  "
             style="fill: none; stroke: #008fd5; stroke-width: 2"
             id="path773" />
        </g>
        <g
           id="text_17">
          <!-- ZnTPP in BN -->
          <g
             transform="translate(113.21 38.357813) scale(0.14 -0.14)"
             id="g806">
            <defs
               id="defs782">
              <path
                 id="DejaVuSans-5a"
                 d="M 359 4666  L 4025 4666  L 4025 4184  L 1075 531  L 4097 531  L 4097 0  L 288 0  L 288 481  L 3238 4134  L 359 4134  L 359 4666  z "
                 transform="scale(0.015625)" />
              <path
                 id="DejaVuSans-54"
                 d="M -19 4666  L 3928 4666  L 3928 4134  L 2272 4134  L 2272 0  L 1638 0  L 1638 4134  L -19 4134  L -19 4666  z "
                 transform="scale(0.015625)" />
              <path
                 id="DejaVuSans-50"
                 d="M 1259 4147  L 1259 2394  L 2053 2394  Q 2494 2394 2734 2622  Q 2975 2850 2975 3272  Q 2975 3691 2734 3919  Q 2494 4147 2053 4147  L 1259 4147  z M 628 4666  L 2053 4666  Q 2838 4666 3239 4311  Q 3641 3956 3641 3272  Q 3641 2581 3239 2228  Q 2838 1875 2053 1875  L 1259 1875  L 1259 0  L 628 0  L 628 4666  z "
                 transform="scale(0.015625)" />
              <path
                 id="DejaVuSans-69"
                 d="M 603 3500  L 1178 3500  L 1178 0  L 603 0  L 603 3500  z M 603 4863  L 1178 4863  L 1178 4134  L 603 4134  L 603 4863  z "
                 transform="scale(0.015625)" />
              <path
                 id="DejaVuSans-42"
                 d="M 1259 2228  L 1259 519  L 2272 519  Q 2781 519 3026 730  Q 3272 941 3272 1375  Q 3272 1813 3026 2020  Q 2781 2228 2272 2228  L 1259 2228  z M 1259 4147  L 1259 2741  L 2194 2741  Q 2656 2741 2882 2914  Q 3109 3088 3109 3444  Q 3109 3797 2882 3972  Q 2656 4147 2194 4147  L 1259 4147  z M 628 4666  L 2241 4666  Q 2963 4666 3353 4366  Q 3744 4066 3744 3513  Q 3744 3084 3544 2831  Q 3344 2578 2956 2516  Q 3422 2416 3680 2098  Q 3938 1781 3938 1306  Q 3938 681 3513 340  Q 3088 0 2303 0  L 628 0  L 628 4666  z "
                 transform="scale(0.015625)" />
              <path
                 id="DejaVuSans-4e"
                 d="M 628 4666  L 1478 4666  L 3547 763  L 3547 4666  L 4159 4666  L 4159 0  L 3309 0  L 1241 3903  L 1241 0  L 628 0  L 628 4666  z "
                 transform="scale(0.015625)" />
            </defs>
            <use
               xlink:href="#DejaVuSans-5a"
               id="use784" />
            <use
               xlink:href="#DejaVuSans-6e"
               x="68.505859"
               id="use786" />
            <use
               xlink:href="#DejaVuSans-54"
               x="131.884766"
               id="use788" />
            <use
               xlink:href="#DejaVuSans-50"
               x="192.96875"
               id="use790" />
            <use
               xlink:href="#DejaVuSans-50"
               x="253.271484"
               id="use792" />
            <use
               xlink:href="#DejaVuSans-20"
               x="313.574219"
               id="use794" />
            <use
               xlink:href="#DejaVuSans-69"
               x="345.361328"
               id="use796" />
            <use
               xlink:href="#DejaVuSans-6e"
               x="373.144531"
               id="use798" />
            <use
               xlink:href="#DejaVuSans-20"
               x="436.523438"
               id="use800" />
            <use
               xlink:href="#DejaVuSans-42"
               x="468.310547"
               id="use802" />
            <use
               xlink:href="#DejaVuSans-4e"
               x="536.914062"
               id="use804" />
          </g>
        </g>
        <g
           id="line2d_32">
          <path
             d="M 74.01 54.007188  L 88.01 54.007188  L 102.01 54.007188  "
             style="fill: none; stroke: #fc4f30; stroke-width: 2"
             id="path809" />
        </g>
        <g
           id="text_18">
          <!-- ZnOEP in BN -->
          <g
             transform="translate(113.21 58.907188) scale(0.14 -0.14)"
             id="g838">
            <defs
               id="defs814">
              <path
                 id="DejaVuSans-4f"
                 d="M 2522 4238  Q 1834 4238 1429 3725  Q 1025 3213 1025 2328  Q 1025 1447 1429 934  Q 1834 422 2522 422  Q 3209 422 3611 934  Q 4013 1447 4013 2328  Q 4013 3213 3611 3725  Q 3209 4238 2522 4238  z M 2522 4750  Q 3503 4750 4090 4092  Q 4678 3434 4678 2328  Q 4678 1225 4090 567  Q 3503 -91 2522 -91  Q 1538 -91 948 565  Q 359 1222 359 2328  Q 359 3434 948 4092  Q 1538 4750 2522 4750  z "
                 transform="scale(0.015625)" />
              <path
                 id="DejaVuSans-45"
                 d="M 628 4666  L 3578 4666  L 3578 4134  L 1259 4134  L 1259 2753  L 3481 2753  L 3481 2222  L 1259 2222  L 1259 531  L 3634 531  L 3634 0  L 628 0  L 628 4666  z "
                 transform="scale(0.015625)" />
            </defs>
            <use
               xlink:href="#DejaVuSans-5a"
               id="use816" />
            <use
               xlink:href="#DejaVuSans-6e"
               x="68.505859"
               id="use818" />
            <use
               xlink:href="#DejaVuSans-4f"
               x="131.884766"
               id="use820" />
            <use
               xlink:href="#DejaVuSans-45"
               x="210.595703"
               id="use822" />
            <use
               xlink:href="#DejaVuSans-50"
               x="273.779297"
               id="use824" />
            <use
               xlink:href="#DejaVuSans-20"
               x="334.082031"
               id="use826" />
            <use
               xlink:href="#DejaVuSans-69"
               x="365.869141"
               id="use828" />
            <use
               xlink:href="#DejaVuSans-6e"
               x="393.652344"
               id="use830" />
            <use
               xlink:href="#DejaVuSans-20"
               x="457.03125"
               id="use832" />
            <use
               xlink:href="#DejaVuSans-42"
               x="488.818359"
               id="use834" />
            <use
               xlink:href="#DejaVuSans-4e"
               x="557.421875"
               id="use836" />
          </g>
        </g>
      </g>
    </g>
  </g>
  <defs
     id="defs847">
    <clipPath
       id="pcf4d89c02a">
      <rect
         x="61.41"
         y="15.12"
         width="405.359764"
         height="272.76752"
         id="rect844" />
    </clipPath>
  </defs>
  <text
     xml:space="preserve"
     transform="scale(0.75)"
     id="text1009"
     style="font-size:16px;font-family:sans-serif;-inkscape-font-specification:'sans-serif, Normal';white-space:pre;shape-inside:url(#rect1011);display:inline;fill:#000000"><tspan
       x="305.86328"
       y="39.116597"
       id="tspan1967">0-0-peak</tspan></text>
  <text
     xml:space="preserve"
     transform="scale(0.75)"
     id="text1015"
     style="font-size:16px;font-family:sans-serif;-inkscape-font-specification:'sans-serif, Normal';white-space:pre;shape-inside:url(#rect1017);display:inline;fill:#000000"><tspan
       x="474.98047"
       y="40.790425"
       id="tspan1969">0-0-peak</tspan></text>
  <text
     xml:space="preserve"
     transform="scale(0.75)"
     id="text1021"
     style="font-size:16px;font-family:sans-serif;-inkscape-font-specification:'sans-serif, Normal';white-space:pre;shape-inside:url(#rect1023);display:inline;fill:#000000"><tspan
       x="477.77148"
       y="317.63027"
       id="tspan1971">0-1-peak</tspan></text>
  <path
     style="fill:none;fill-rule:evenodd;stroke:#000000;stroke-width:0.75px;stroke-linecap:butt;stroke-linejoin:miter;stroke-opacity:1"
     d="m 280.88648,30.139831 15.90713,8.372175"
     id="path1124"
     inkscape:connector-type="polyline"
     inkscape:connector-curvature="0" />
  <path
     style="fill:none;fill-rule:evenodd;stroke:#000000;stroke-width:0.75px;stroke-linecap:butt;stroke-linejoin:miter;stroke-opacity:1"
     d="m 354.98023,30.558439 -12.13966,6.279132"
     id="path1126"
     inkscape:connector-type="polyline"
     inkscape:connector-curvature="0" />
  <path
     style="display:inline;fill:none;fill-rule:evenodd;stroke:#000000;stroke-width:0.75px;stroke-linecap:butt;stroke-linejoin:miter;stroke-opacity:1"
     d="m 351.63136,262.46769 7.53495,-20.93044"
     id="path1128"
     inkscape:connector-type="polyline"
     inkscape:connector-curvature="0" />
</svg>
