<?xml version="1.0" encoding="UTF-8" standalone="no"?>
<!-- Created with Inkscape (http://www.inkscape.org/) -->
<svg
   xmlns:svg="http://www.w3.org/2000/svg"
   xmlns="http://www.w3.org/2000/svg"
   version="1.0"
   width="420"
   height="318.35001"
   id="svg2">
  <defs
     id="defs4" />
  <g
     transform="translate(-106.5,-418.39606)"
     id="layer1">
    <path
       d="M 164.16839,699.14574 L 116.5,671.54826 L 116.5,614.95392 L 116.5,558.35957 L 164.42285,530.6845 C 190.78041,515.46321 212.67327,503.00943 213.07364,503.00943 C 213.47401,503.00943 234.97547,515.22704 260.85465,530.15969 C 286.73384,545.09233 308.11559,557.24143 308.36966,557.15769 C 308.62373,557.07394 323.71613,548.40037 341.90833,537.88308 C 360.10053,527.36578 375.24272,518.76072 375.55764,518.76072 C 375.87257,518.76072 376.5184,519.61264 376.99281,520.65387 C 377.82259,522.47505 376.56834,523.28662 344.00119,542.00102 L 310.14699,561.45502 L 309.90381,616.52837 L 309.66062,671.60171 L 261.99223,699.17335 C 235.77461,714.33775 213.76425,726.74458 213.08031,726.7441 C 212.39637,726.74361 190.38601,714.32435 164.16839,699.14574 z M 259.88782,694.92652 L 305.90812,668.39803 L 305.89884,614.92652 L 305.88955,561.45502 L 259.48839,534.71413 L 213.08721,507.97323 L 166.68546,534.71413 L 120.2837,561.45502 L 120.27292,614.92652 L 120.26215,668.39803 L 166.46397,695.09033 C 191.87498,709.77109 212.93619,721.70892 213.26667,721.61883 C 213.59714,721.52873 234.57665,709.5172 259.88782,694.92652 z M 213.18356,705.59925 C 212.63667,704.39897 212.29645,703.34335 212.42751,703.25341 C 215.26932,701.30333 289.5585,658.86435 290.1303,658.86435 C 290.93704,658.86435 293.06006,662.11927 292.52572,662.5369 C 292.37479,662.65486 275.84406,672.19918 255.79077,683.7465 C 235.73748,695.29381 218.17096,705.42561 216.75407,706.2616 L 214.17789,707.78158 L 213.18356,705.59925 z M 131.83679,614.92652 L 131.83679,569.33067 L 134.32383,569.33067 L 136.81088,569.33067 L 136.81088,614.92652 L 136.81088,660.52238 L 134.32383,660.52238 L 131.83679,660.52238 L 131.83679,614.92652 z M 251.21503,549.01811 C 230.46891,536.97881 213.16328,527.0005 212.75807,526.84409 C 212.35286,526.68769 212.53939,525.58597 213.17258,524.39584 L 214.32383,522.23196 L 252.87306,544.52243 C 274.07513,556.78219 291.75557,566.93091 292.16292,567.07514 C 293.20485,567.44406 291.16754,570.99746 289.94234,570.94823 C 289.38843,570.92597 271.96114,561.05742 251.21503,549.01811 z M 396.03061,530.82388 C 390.8084,528.96141 388.08014,526.21775 384.85951,519.58974 C 382.93865,515.63664 382.64196,513.98257 382.62897,507.1545 C 382.61241,498.44856 384.3181,493.21797 388.6688,488.63299 C 393.6156,483.41981 402.80257,481.05748 410.27205,483.07794 C 414.60203,484.24919 419.81305,488.93548 421.56172,493.23081 L 422.812,496.30192 L 419.70781,497.15996 C 418.00051,497.63188 416.50888,497.74211 416.39308,497.40491 C 415.5516,494.95452 412.44402,491.11723 410.18633,489.7407 C 404.18929,486.08425 395.00609,488.91091 391.31865,495.54829 C 389.51518,498.79454 389.24611,500.30131 389.24611,507.1545 C 389.24611,514.0077 389.51518,515.51447 391.31865,518.76072 C 394.08708,523.74388 399.20921,526.47525 404.85191,525.97731 C 409.83657,525.53743 412.69826,523.4885 415.3601,518.45354 C 417.3553,514.67958 417.54093,514.55304 420.3342,515.06291 C 421.93005,515.3542 423.35497,515.70956 423.50068,515.85261 C 424.37802,516.71388 419.59471,525.06761 416.90681,527.36834 C 411.60364,531.90766 403.04272,533.32471 396.03061,530.82388 z M 436.13604,505.26934 C 434.77374,503.08796 433.25739,504.15869 457.72369,490.0257 L 476.61258,479.11451 L 477.89993,481.07926 C 479.36289,483.31201 482.2592,481.30776 454.32383,497.39392 C 435.752,508.08824 437.44,507.35732 436.13604,505.26934 z M 427.93696,490.96846 C 427.134,489.20616 427.25887,488.76839 428.852,487.76055 C 433.14043,485.04759 467.0496,465.61472 467.76635,465.45928 C 468.1976,465.36575 469.09499,466.08261 469.76056,467.05232 C 470.93835,468.76832 470.42163,469.1311 450.41928,480.63164 C 439.11601,487.13056 429.64263,492.57418 429.36734,492.72856 C 429.09204,492.88294 428.44837,492.09089 427.93696,490.96846 z M 419.46718,476.40992 C 418.95824,475.45896 418.66532,474.58713 418.81625,474.47255 C 419.74962,473.76389 458.60858,451.50483 459.52882,451.1517 C 460.1904,450.89783 461.04231,451.55507 461.57929,452.73362 C 462.47911,454.70851 462.08097,454.9897 442.16561,466.44441 C 430.98283,472.87641 421.50911,478.13896 421.1129,478.13896 C 420.7167,478.13896 419.97613,477.3609 419.46718,476.40992 z M 478.36528,452.43948 L 478.36528,428.39803 L 481.8886,428.41913 L 485.41192,428.44022 L 497.63762,446.86472 L 509.86333,465.28922 L 509.8656,446.84362 L 509.86788,428.39803 L 513.18394,428.39803 L 516.5,428.39803 L 516.5,452.43948 L 516.5,476.48093 L 512.97668,476.45984 L 509.45337,476.43874 L 497.22766,458.01424 L 485.00195,439.58974 L 484.99968,458.03533 L 484.99741,476.48093 L 481.68135,476.48093 L 478.36528,476.48093 L 478.36528,452.43948 z"
       id="path2453"
       style="fill:#000000" />
  </g>
</svg>
