<?xml version="1.0" encoding="UTF-8"?>
<svg width="76pt" version="1.1" xmlns="http://www.w3.org/2000/svg" height="133pt" viewBox="0 0 76 133" xmlns:xlink="http://www.w3.org/1999/xlink">
 <defs>
  <clipPath id="Clip0">
   <path d="M0 0 L76 0 L76 133 L0 133 L0 0 Z" transform="translate(0, 0)"/>
  </clipPath>
 </defs>
 <g id="Background">
  <g id="Group1" clip-path="url(#Clip0)">
   <path style="fill:#000000; fill-rule:nonzero;stroke:none;" d="M1.70019 39.6496 L0 40.6496 L0 0 L1.70019 0.9492 L1.70019 39.6496 Z" transform="translate(2.7002, 69.9004)"/>
   <path style="fill:#000000; fill-rule:nonzero;stroke:none;" d="M1.69921 32.8002 L0 32.8002 L0 0 L1.69921 0 L1.69921 32.8002 Z" transform="translate(8.65039, 73.7998)"/>
   <path style="fill:#000000; fill-rule:nonzero;stroke:none;" d="M35.25 19.35 L35.25 21.35 L0 1 L1.70019 0 L35.25 19.35 Z" transform="translate(2.7002, 109.55)"/>
   <path style="fill:#000000; fill-rule:nonzero;stroke:none;" d="M33.5 0 L35.2002 1 L0 21.35 L0 19.35 L33.5 0 Z" transform="translate(37.9502, 109.55)"/>
   <path style="fill:#000000; fill-rule:nonzero;stroke:none;" d="M28.4004 0 L29.25 1.45 L0.8496 17.85 L0 16.4 L28.4004 0 Z" transform="translate(37.5, 105.9)"/>
   <path style="fill:#000000; fill-rule:nonzero;stroke:none;" d="M0 0.9492 L1.7002 0 L1.7002 40.6496 L0 39.6496 L0 0.9492 Z" transform="translate(71.4502, 69.9004)"/>
   <path style="fill:#000000; fill-rule:nonzero;stroke:none;" d="M0 1.4502 L0 0.5 L0.8496 0 L35.2002 19.8506 L33.5 20.7998 L0 1.4502 Z" transform="translate(37.9502, 50.0498)"/>
   <path style="fill:#000000; fill-rule:nonzero;stroke:none;" d="M0 1.5 L0.8496 0 L29.25 16.3994 L28.4004 17.8994 L0 1.5 Z" transform="translate(37.5, 56.6504)"/>
   <path style="fill:#000000; fill-rule:nonzero;stroke:none;" d="M1.70019 20.7998 L0 19.8506 L34.3994 0 L35.25 0.5 L35.25 1.4502 L1.70019 20.7998 Z" transform="translate(2.7002, 50.0498)"/>
   <path style="fill:#000000; fill-rule:evenodd;stroke:none;" d="M14.7305 5.71094 C14.0352 1.875 11.8282 0 7.9883 0 C5.6368 0 3.7422 0.74609 2.4454 2.18359 C0.8633 3.91406 0 6.41016 0 9.23824 C0 12.1171 0.8868 14.5898 2.5196 16.2929 C3.8868 17.6836 5.6133 18.332 7.8946 18.332 C12.1641 18.332 14.5625 16.0312 15.0899 11.3984 L12.7891 11.3984 C12.5977 12.5976 12.3555 13.414 11.9961 14.1093 C11.2774 15.5507 9.7891 16.3671 7.918 16.3671 C4.4375 16.3671 2.2305 13.582 2.2305 9.21484 C2.2305 4.73047 4.3165 1.96875 7.7266 1.96875 C9.1407 1.96875 10.461 2.37891 11.1797 3.07422 C11.8282 3.67187 12.1875 4.39453 12.4532 5.71094 L14.7305 5.71094 Z" transform="translate(30.4521, 1.81836)"/>
   <path style="fill:#000000; fill-rule:evenodd;stroke:none;" d="M11.2266 9.52738 L11.2266 17.4922 L13.461 17.4922 L13.461 0 L11.2266 0 L11.2266 7.5586 L2.2305 7.5586 L2.2305 0 L0 0 L0 17.4922 L2.2539 17.4922 L2.2539 9.52738 L11.2266 9.52738 Z" transform="translate(48.6191, 2.10742)"/>
   <path style="fill:#000000; fill-rule:evenodd;stroke:none;" d="M3.4063 6.9257 L3.6055 6.9257 L4.2735 6.9062 C6.0235 6.9062 6.9219 7.6992 6.9219 9.2343 C6.9219 10.8359 5.9336 11.7929 4.2735 11.7929 C2.543 11.7929 1.6953 10.9257 1.586 9.0703 L0 9.0703 C0.0703 10.0976 0.25 10.7656 0.5586 11.3437 C1.2071 12.5703 2.4688 13.1992 4.2188 13.1992 C6.8516 13.1992 8.5469 11.6328 8.5469 9.2148 C8.5469 7.5898 7.9141 6.6914 6.3828 6.1679 C7.5742 5.6796 8.168 4.7968 8.168 3.5156 C8.168 1.3164 6.7071 0 4.2735 0 C1.6953 0 0.3242 1.4062 0.2696 4.1289 L1.8555 4.1289 C1.875 3.3554 1.9453 2.9218 2.1446 2.5234 C2.5039 1.8203 3.3008 1.3867 4.2891 1.3867 C5.6992 1.3867 6.5469 2.1992 6.5469 3.5703 C6.5469 4.4726 6.2188 5.0117 5.5157 5.3007 C5.086 5.4804 4.5235 5.5546 3.4063 5.5703 L3.4063 6.9257 Z" transform="translate(64.5322, 11.3145)"/>
   <path style="fill:#000000; fill-rule:nonzero;stroke:none;" d="M0 0 L1.7002 0 L1.7002 27.8994 L0.8506 28.3994 L0 27.8994 L0 0 Z" transform="translate(37.0996, 22.1504)"/>
  </g>
 </g>
</svg>
