<?xml version="1.0" encoding="utf-8" standalone="no"?>
<!DOCTYPE svg PUBLIC "-//W3C//DTD SVG 1.1//EN"
  "http://www.w3.org/Graphics/SVG/1.1/DTD/svg11.dtd">
<svg xmlns:xlink="http://www.w3.org/1999/xlink" width="576pt" height="407.293506pt" viewBox="0 0 576 407.293506" xmlns="http://www.w3.org/2000/svg" version="1.1">
 <metadata>
  <rdf:RDF xmlns:dc="http://purl.org/dc/elements/1.1/" xmlns:cc="http://creativecommons.org/ns#" xmlns:rdf="http://www.w3.org/1999/02/22-rdf-syntax-ns#">
   <cc:Work>
    <dc:type rdf:resource="http://purl.org/dc/dcmitype/StillImage"/>
    <dc:date>2023-05-24T11:26:54.379914</dc:date>
    <dc:format>image/svg+xml</dc:format>
    <dc:creator>
     <cc:Agent>
      <dc:title>Matplotlib v3.7.1, https://matplotlib.org/</dc:title>
     </cc:Agent>
    </dc:creator>
   </cc:Work>
  </rdf:RDF>
 </metadata>
 <defs>
  <style type="text/css">*{stroke-linejoin: round; stroke-linecap: butt}</style>
 </defs>
 <g id="figure_1">
  <g id="patch_1">
   <path d="M 0 407.293506 
L 576 407.293506 
L 576 0 
L 0 0 
z
" style="fill: #f0f0f0"/>
  </g>
  <g id="axes_1">
   <g id="patch_2">
    <path d="M 83.46 351.553506 
L 551.97 351.553506 
L 551.97 20.52 
L 83.46 20.52 
z
" style="fill: #f0f0f0"/>
   </g>
   <g id="matplotlib.axis_1">
    <g id="xtick_1">
     <g id="line2d_1">
      <path d="M 83.46 351.553506 
L 83.46 20.52 
" clip-path="url(#pfe096fd63b)" style="fill: none; stroke: #cbcbcb"/>
     </g>
     <g id="line2d_2"/>
     <g id="text_1">
      <!-- 7 -->
      <g transform="translate(79.00625 365.691318) scale(0.14 -0.14)">
       <defs>
        <path id="DejaVuSans-37" d="M 525 4666 
L 3525 4666 
L 3525 4397 
L 1831 0 
L 1172 0 
L 2766 4134 
L 525 4134 
L 525 4666 
z
" transform="scale(0.015625)"/>
       </defs>
       <use xlink:href="#DejaVuSans-37"/>
      </g>
     </g>
    </g>
    <g id="xtick_2">
     <g id="line2d_3">
      <path d="M 177.162 351.553506 
L 177.162 20.52 
" clip-path="url(#pfe096fd63b)" style="fill: none; stroke: #cbcbcb"/>
     </g>
     <g id="line2d_4"/>
     <g id="text_2">
      <!-- 8 -->
      <g transform="translate(172.70825 365.691318) scale(0.14 -0.14)">
       <defs>
        <path id="DejaVuSans-38" d="M 2034 2216 
Q 1584 2216 1326 1975 
Q 1069 1734 1069 1313 
Q 1069 891 1326 650 
Q 1584 409 2034 409 
Q 2484 409 2743 651 
Q 3003 894 3003 1313 
Q 3003 1734 2745 1975 
Q 2488 2216 2034 2216 
z
M 1403 2484 
Q 997 2584 770 2862 
Q 544 3141 544 3541 
Q 544 4100 942 4425 
Q 1341 4750 2034 4750 
Q 2731 4750 3128 4425 
Q 3525 4100 3525 3541 
Q 3525 3141 3298 2862 
Q 3072 2584 2669 2484 
Q 3125 2378 3379 2068 
Q 3634 1759 3634 1313 
Q 3634 634 3220 271 
Q 2806 -91 2034 -91 
Q 1263 -91 848 271 
Q 434 634 434 1313 
Q 434 1759 690 2068 
Q 947 2378 1403 2484 
z
M 1172 3481 
Q 1172 3119 1398 2916 
Q 1625 2713 2034 2713 
Q 2441 2713 2670 2916 
Q 2900 3119 2900 3481 
Q 2900 3844 2670 4047 
Q 2441 4250 2034 4250 
Q 1625 4250 1398 4047 
Q 1172 3844 1172 3481 
z
" transform="scale(0.015625)"/>
       </defs>
       <use xlink:href="#DejaVuSans-38"/>
      </g>
     </g>
    </g>
    <g id="xtick_3">
     <g id="line2d_5">
      <path d="M 270.864 351.553506 
L 270.864 20.52 
" clip-path="url(#pfe096fd63b)" style="fill: none; stroke: #cbcbcb"/>
     </g>
     <g id="line2d_6"/>
     <g id="text_3">
      <!-- 9 -->
      <g transform="translate(266.41025 365.691318) scale(0.14 -0.14)">
       <defs>
        <path id="DejaVuSans-39" d="M 703 97 
L 703 672 
Q 941 559 1184 500 
Q 1428 441 1663 441 
Q 2288 441 2617 861 
Q 2947 1281 2994 2138 
Q 2813 1869 2534 1725 
Q 2256 1581 1919 1581 
Q 1219 1581 811 2004 
Q 403 2428 403 3163 
Q 403 3881 828 4315 
Q 1253 4750 1959 4750 
Q 2769 4750 3195 4129 
Q 3622 3509 3622 2328 
Q 3622 1225 3098 567 
Q 2575 -91 1691 -91 
Q 1453 -91 1209 -44 
Q 966 3 703 97 
z
M 1959 2075 
Q 2384 2075 2632 2365 
Q 2881 2656 2881 3163 
Q 2881 3666 2632 3958 
Q 2384 4250 1959 4250 
Q 1534 4250 1286 3958 
Q 1038 3666 1038 3163 
Q 1038 2656 1286 2365 
Q 1534 2075 1959 2075 
z
" transform="scale(0.015625)"/>
       </defs>
       <use xlink:href="#DejaVuSans-39"/>
      </g>
     </g>
    </g>
    <g id="xtick_4">
     <g id="line2d_7">
      <path d="M 364.566 351.553506 
L 364.566 20.52 
" clip-path="url(#pfe096fd63b)" style="fill: none; stroke: #cbcbcb"/>
     </g>
     <g id="line2d_8"/>
     <g id="text_4">
      <!-- 10 -->
      <g transform="translate(355.6585 365.691318) scale(0.14 -0.14)">
       <defs>
        <path id="DejaVuSans-31" d="M 794 531 
L 1825 531 
L 1825 4091 
L 703 3866 
L 703 4441 
L 1819 4666 
L 2450 4666 
L 2450 531 
L 3481 531 
L 3481 0 
L 794 0 
L 794 531 
z
" transform="scale(0.015625)"/>
        <path id="DejaVuSans-30" d="M 2034 4250 
Q 1547 4250 1301 3770 
Q 1056 3291 1056 2328 
Q 1056 1369 1301 889 
Q 1547 409 2034 409 
Q 2525 409 2770 889 
Q 3016 1369 3016 2328 
Q 3016 3291 2770 3770 
Q 2525 4250 2034 4250 
z
M 2034 4750 
Q 2819 4750 3233 4129 
Q 3647 3509 3647 2328 
Q 3647 1150 3233 529 
Q 2819 -91 2034 -91 
Q 1250 -91 836 529 
Q 422 1150 422 2328 
Q 422 3509 836 4129 
Q 1250 4750 2034 4750 
z
" transform="scale(0.015625)"/>
       </defs>
       <use xlink:href="#DejaVuSans-31"/>
       <use xlink:href="#DejaVuSans-30" x="63.623047"/>
      </g>
     </g>
    </g>
    <g id="xtick_5">
     <g id="line2d_9">
      <path d="M 458.268 351.553506 
L 458.268 20.52 
" clip-path="url(#pfe096fd63b)" style="fill: none; stroke: #cbcbcb"/>
     </g>
     <g id="line2d_10"/>
     <g id="text_5">
      <!-- 11 -->
      <g transform="translate(449.3605 365.691318) scale(0.14 -0.14)">
       <use xlink:href="#DejaVuSans-31"/>
       <use xlink:href="#DejaVuSans-31" x="63.623047"/>
      </g>
     </g>
    </g>
    <g id="xtick_6">
     <g id="line2d_11">
      <path d="M 551.97 351.553506 
L 551.97 20.52 
" clip-path="url(#pfe096fd63b)" style="fill: none; stroke: #cbcbcb"/>
     </g>
     <g id="line2d_12"/>
     <g id="text_6">
      <!-- 12 -->
      <g transform="translate(543.0625 365.691318) scale(0.14 -0.14)">
       <defs>
        <path id="DejaVuSans-32" d="M 1228 531 
L 3431 531 
L 3431 0 
L 469 0 
L 469 531 
Q 828 903 1448 1529 
Q 2069 2156 2228 2338 
Q 2531 2678 2651 2914 
Q 2772 3150 2772 3378 
Q 2772 3750 2511 3984 
Q 2250 4219 1831 4219 
Q 1534 4219 1204 4116 
Q 875 4013 500 3803 
L 500 4441 
Q 881 4594 1212 4672 
Q 1544 4750 1819 4750 
Q 2544 4750 2975 4387 
Q 3406 4025 3406 3419 
Q 3406 3131 3298 2873 
Q 3191 2616 2906 2266 
Q 2828 2175 2409 1742 
Q 1991 1309 1228 531 
z
" transform="scale(0.015625)"/>
       </defs>
       <use xlink:href="#DejaVuSans-31"/>
       <use xlink:href="#DejaVuSans-32" x="63.623047"/>
      </g>
     </g>
    </g>
    <g id="text_7">
     <!-- $\theta $ (from measurement in degree) -->
     <g transform="translate(179.535 385.538881) scale(0.168 -0.168)">
      <defs>
       <path id="DejaVuSans-Oblique-3b8" d="M 2913 2219 
L 925 2219 
Q 791 1284 928 888 
Q 1100 400 1566 400 
Q 2034 400 2391 891 
Q 2703 1322 2913 2219 
z
M 3009 2750 
Q 3094 3638 2984 3950 
Q 2813 4444 2353 4444 
Q 1875 4444 1525 3956 
Q 1250 3563 1034 2750 
L 3009 2750 
z
M 2444 4913 
Q 3194 4913 3494 4250 
Q 3794 3591 3566 2422 
Q 3341 1256 2781 594 
Q 2225 -72 1475 -72 
Q 722 -72 425 594 
Q 128 1256 353 2422 
Q 581 3591 1134 4250 
Q 1691 4913 2444 4913 
z
" transform="scale(0.015625)"/>
       <path id="DejaVuSans-20" transform="scale(0.015625)"/>
       <path id="DejaVuSans-28" d="M 1984 4856 
Q 1566 4138 1362 3434 
Q 1159 2731 1159 2009 
Q 1159 1288 1364 580 
Q 1569 -128 1984 -844 
L 1484 -844 
Q 1016 -109 783 600 
Q 550 1309 550 2009 
Q 550 2706 781 3412 
Q 1013 4119 1484 4856 
L 1984 4856 
z
" transform="scale(0.015625)"/>
       <path id="DejaVuSans-66" d="M 2375 4863 
L 2375 4384 
L 1825 4384 
Q 1516 4384 1395 4259 
Q 1275 4134 1275 3809 
L 1275 3500 
L 2222 3500 
L 2222 3053 
L 1275 3053 
L 1275 0 
L 697 0 
L 697 3053 
L 147 3053 
L 147 3500 
L 697 3500 
L 697 3744 
Q 697 4328 969 4595 
Q 1241 4863 1831 4863 
L 2375 4863 
z
" transform="scale(0.015625)"/>
       <path id="DejaVuSans-72" d="M 2631 2963 
Q 2534 3019 2420 3045 
Q 2306 3072 2169 3072 
Q 1681 3072 1420 2755 
Q 1159 2438 1159 1844 
L 1159 0 
L 581 0 
L 581 3500 
L 1159 3500 
L 1159 2956 
Q 1341 3275 1631 3429 
Q 1922 3584 2338 3584 
Q 2397 3584 2469 3576 
Q 2541 3569 2628 3553 
L 2631 2963 
z
" transform="scale(0.015625)"/>
       <path id="DejaVuSans-6f" d="M 1959 3097 
Q 1497 3097 1228 2736 
Q 959 2375 959 1747 
Q 959 1119 1226 758 
Q 1494 397 1959 397 
Q 2419 397 2687 759 
Q 2956 1122 2956 1747 
Q 2956 2369 2687 2733 
Q 2419 3097 1959 3097 
z
M 1959 3584 
Q 2709 3584 3137 3096 
Q 3566 2609 3566 1747 
Q 3566 888 3137 398 
Q 2709 -91 1959 -91 
Q 1206 -91 779 398 
Q 353 888 353 1747 
Q 353 2609 779 3096 
Q 1206 3584 1959 3584 
z
" transform="scale(0.015625)"/>
       <path id="DejaVuSans-6d" d="M 3328 2828 
Q 3544 3216 3844 3400 
Q 4144 3584 4550 3584 
Q 5097 3584 5394 3201 
Q 5691 2819 5691 2113 
L 5691 0 
L 5113 0 
L 5113 2094 
Q 5113 2597 4934 2840 
Q 4756 3084 4391 3084 
Q 3944 3084 3684 2787 
Q 3425 2491 3425 1978 
L 3425 0 
L 2847 0 
L 2847 2094 
Q 2847 2600 2669 2842 
Q 2491 3084 2119 3084 
Q 1678 3084 1418 2786 
Q 1159 2488 1159 1978 
L 1159 0 
L 581 0 
L 581 3500 
L 1159 3500 
L 1159 2956 
Q 1356 3278 1631 3431 
Q 1906 3584 2284 3584 
Q 2666 3584 2933 3390 
Q 3200 3197 3328 2828 
z
" transform="scale(0.015625)"/>
       <path id="DejaVuSans-65" d="M 3597 1894 
L 3597 1613 
L 953 1613 
Q 991 1019 1311 708 
Q 1631 397 2203 397 
Q 2534 397 2845 478 
Q 3156 559 3463 722 
L 3463 178 
Q 3153 47 2828 -22 
Q 2503 -91 2169 -91 
Q 1331 -91 842 396 
Q 353 884 353 1716 
Q 353 2575 817 3079 
Q 1281 3584 2069 3584 
Q 2775 3584 3186 3129 
Q 3597 2675 3597 1894 
z
M 3022 2063 
Q 3016 2534 2758 2815 
Q 2500 3097 2075 3097 
Q 1594 3097 1305 2825 
Q 1016 2553 972 2059 
L 3022 2063 
z
" transform="scale(0.015625)"/>
       <path id="DejaVuSans-61" d="M 2194 1759 
Q 1497 1759 1228 1600 
Q 959 1441 959 1056 
Q 959 750 1161 570 
Q 1363 391 1709 391 
Q 2188 391 2477 730 
Q 2766 1069 2766 1631 
L 2766 1759 
L 2194 1759 
z
M 3341 1997 
L 3341 0 
L 2766 0 
L 2766 531 
Q 2569 213 2275 61 
Q 1981 -91 1556 -91 
Q 1019 -91 701 211 
Q 384 513 384 1019 
Q 384 1609 779 1909 
Q 1175 2209 1959 2209 
L 2766 2209 
L 2766 2266 
Q 2766 2663 2505 2880 
Q 2244 3097 1772 3097 
Q 1472 3097 1187 3025 
Q 903 2953 641 2809 
L 641 3341 
Q 956 3463 1253 3523 
Q 1550 3584 1831 3584 
Q 2591 3584 2966 3190 
Q 3341 2797 3341 1997 
z
" transform="scale(0.015625)"/>
       <path id="DejaVuSans-73" d="M 2834 3397 
L 2834 2853 
Q 2591 2978 2328 3040 
Q 2066 3103 1784 3103 
Q 1356 3103 1142 2972 
Q 928 2841 928 2578 
Q 928 2378 1081 2264 
Q 1234 2150 1697 2047 
L 1894 2003 
Q 2506 1872 2764 1633 
Q 3022 1394 3022 966 
Q 3022 478 2636 193 
Q 2250 -91 1575 -91 
Q 1294 -91 989 -36 
Q 684 19 347 128 
L 347 722 
Q 666 556 975 473 
Q 1284 391 1588 391 
Q 1994 391 2212 530 
Q 2431 669 2431 922 
Q 2431 1156 2273 1281 
Q 2116 1406 1581 1522 
L 1381 1569 
Q 847 1681 609 1914 
Q 372 2147 372 2553 
Q 372 3047 722 3315 
Q 1072 3584 1716 3584 
Q 2034 3584 2315 3537 
Q 2597 3491 2834 3397 
z
" transform="scale(0.015625)"/>
       <path id="DejaVuSans-75" d="M 544 1381 
L 544 3500 
L 1119 3500 
L 1119 1403 
Q 1119 906 1312 657 
Q 1506 409 1894 409 
Q 2359 409 2629 706 
Q 2900 1003 2900 1516 
L 2900 3500 
L 3475 3500 
L 3475 0 
L 2900 0 
L 2900 538 
Q 2691 219 2414 64 
Q 2138 -91 1772 -91 
Q 1169 -91 856 284 
Q 544 659 544 1381 
z
M 1991 3584 
L 1991 3584 
z
" transform="scale(0.015625)"/>
       <path id="DejaVuSans-6e" d="M 3513 2113 
L 3513 0 
L 2938 0 
L 2938 2094 
Q 2938 2591 2744 2837 
Q 2550 3084 2163 3084 
Q 1697 3084 1428 2787 
Q 1159 2491 1159 1978 
L 1159 0 
L 581 0 
L 581 3500 
L 1159 3500 
L 1159 2956 
Q 1366 3272 1645 3428 
Q 1925 3584 2291 3584 
Q 2894 3584 3203 3211 
Q 3513 2838 3513 2113 
z
" transform="scale(0.015625)"/>
       <path id="DejaVuSans-74" d="M 1172 4494 
L 1172 3500 
L 2356 3500 
L 2356 3053 
L 1172 3053 
L 1172 1153 
Q 1172 725 1289 603 
Q 1406 481 1766 481 
L 2356 481 
L 2356 0 
L 1766 0 
Q 1100 0 847 248 
Q 594 497 594 1153 
L 594 3053 
L 172 3053 
L 172 3500 
L 594 3500 
L 594 4494 
L 1172 4494 
z
" transform="scale(0.015625)"/>
       <path id="DejaVuSans-69" d="M 603 3500 
L 1178 3500 
L 1178 0 
L 603 0 
L 603 3500 
z
M 603 4863 
L 1178 4863 
L 1178 4134 
L 603 4134 
L 603 4863 
z
" transform="scale(0.015625)"/>
       <path id="DejaVuSans-64" d="M 2906 2969 
L 2906 4863 
L 3481 4863 
L 3481 0 
L 2906 0 
L 2906 525 
Q 2725 213 2448 61 
Q 2172 -91 1784 -91 
Q 1150 -91 751 415 
Q 353 922 353 1747 
Q 353 2572 751 3078 
Q 1150 3584 1784 3584 
Q 2172 3584 2448 3432 
Q 2725 3281 2906 2969 
z
M 947 1747 
Q 947 1113 1208 752 
Q 1469 391 1925 391 
Q 2381 391 2643 752 
Q 2906 1113 2906 1747 
Q 2906 2381 2643 2742 
Q 2381 3103 1925 3103 
Q 1469 3103 1208 2742 
Q 947 2381 947 1747 
z
" transform="scale(0.015625)"/>
       <path id="DejaVuSans-67" d="M 2906 1791 
Q 2906 2416 2648 2759 
Q 2391 3103 1925 3103 
Q 1463 3103 1205 2759 
Q 947 2416 947 1791 
Q 947 1169 1205 825 
Q 1463 481 1925 481 
Q 2391 481 2648 825 
Q 2906 1169 2906 1791 
z
M 3481 434 
Q 3481 -459 3084 -895 
Q 2688 -1331 1869 -1331 
Q 1566 -1331 1297 -1286 
Q 1028 -1241 775 -1147 
L 775 -588 
Q 1028 -725 1275 -790 
Q 1522 -856 1778 -856 
Q 2344 -856 2625 -561 
Q 2906 -266 2906 331 
L 2906 616 
Q 2728 306 2450 153 
Q 2172 0 1784 0 
Q 1141 0 747 490 
Q 353 981 353 1791 
Q 353 2603 747 3093 
Q 1141 3584 1784 3584 
Q 2172 3584 2450 3431 
Q 2728 3278 2906 2969 
L 2906 3500 
L 3481 3500 
L 3481 434 
z
" transform="scale(0.015625)"/>
       <path id="DejaVuSans-29" d="M 513 4856 
L 1013 4856 
Q 1481 4119 1714 3412 
Q 1947 2706 1947 2009 
Q 1947 1309 1714 600 
Q 1481 -109 1013 -844 
L 513 -844 
Q 928 -128 1133 580 
Q 1338 1288 1338 2009 
Q 1338 2731 1133 3434 
Q 928 4138 513 4856 
z
" transform="scale(0.015625)"/>
      </defs>
      <use xlink:href="#DejaVuSans-Oblique-3b8" transform="translate(0 0.234375)"/>
      <use xlink:href="#DejaVuSans-20" transform="translate(61.181641 0.234375)"/>
      <use xlink:href="#DejaVuSans-28" transform="translate(92.96875 0.234375)"/>
      <use xlink:href="#DejaVuSans-66" transform="translate(131.982422 0.234375)"/>
      <use xlink:href="#DejaVuSans-72" transform="translate(167.1875 0.234375)"/>
      <use xlink:href="#DejaVuSans-6f" transform="translate(208.300781 0.234375)"/>
      <use xlink:href="#DejaVuSans-6d" transform="translate(269.482422 0.234375)"/>
      <use xlink:href="#DejaVuSans-20" transform="translate(366.894531 0.234375)"/>
      <use xlink:href="#DejaVuSans-6d" transform="translate(398.681641 0.234375)"/>
      <use xlink:href="#DejaVuSans-65" transform="translate(496.09375 0.234375)"/>
      <use xlink:href="#DejaVuSans-61" transform="translate(557.617188 0.234375)"/>
      <use xlink:href="#DejaVuSans-73" transform="translate(618.896484 0.234375)"/>
      <use xlink:href="#DejaVuSans-75" transform="translate(670.996094 0.234375)"/>
      <use xlink:href="#DejaVuSans-72" transform="translate(734.375 0.234375)"/>
      <use xlink:href="#DejaVuSans-65" transform="translate(775.488281 0.234375)"/>
      <use xlink:href="#DejaVuSans-6d" transform="translate(837.011719 0.234375)"/>
      <use xlink:href="#DejaVuSans-65" transform="translate(934.423828 0.234375)"/>
      <use xlink:href="#DejaVuSans-6e" transform="translate(995.947266 0.234375)"/>
      <use xlink:href="#DejaVuSans-74" transform="translate(1059.326172 0.234375)"/>
      <use xlink:href="#DejaVuSans-20" transform="translate(1098.535156 0.234375)"/>
      <use xlink:href="#DejaVuSans-69" transform="translate(1130.322266 0.234375)"/>
      <use xlink:href="#DejaVuSans-6e" transform="translate(1158.105469 0.234375)"/>
      <use xlink:href="#DejaVuSans-20" transform="translate(1221.484375 0.234375)"/>
      <use xlink:href="#DejaVuSans-64" transform="translate(1253.271484 0.234375)"/>
      <use xlink:href="#DejaVuSans-65" transform="translate(1316.748047 0.234375)"/>
      <use xlink:href="#DejaVuSans-67" transform="translate(1378.271484 0.234375)"/>
      <use xlink:href="#DejaVuSans-72" transform="translate(1441.748047 0.234375)"/>
      <use xlink:href="#DejaVuSans-65" transform="translate(1482.861328 0.234375)"/>
      <use xlink:href="#DejaVuSans-65" transform="translate(1544.384766 0.234375)"/>
      <use xlink:href="#DejaVuSans-29" transform="translate(1605.908203 0.234375)"/>
     </g>
    </g>
   </g>
   <g id="matplotlib.axis_2">
    <g id="ytick_1">
     <g id="line2d_13">
      <path d="M 83.46 332.080947 
L 551.97 332.080947 
" clip-path="url(#pfe096fd63b)" style="fill: none; stroke: #cbcbcb"/>
     </g>
     <g id="line2d_14"/>
     <g id="text_8">
      <!-- 2000 -->
      <g transform="translate(44.33 337.399853) scale(0.14 -0.14)">
       <use xlink:href="#DejaVuSans-32"/>
       <use xlink:href="#DejaVuSans-30" x="63.623047"/>
       <use xlink:href="#DejaVuSans-30" x="127.246094"/>
       <use xlink:href="#DejaVuSans-30" x="190.869141"/>
      </g>
     </g>
    </g>
    <g id="ytick_2">
     <g id="line2d_15">
      <path d="M 83.46 293.135828 
L 551.97 293.135828 
" clip-path="url(#pfe096fd63b)" style="fill: none; stroke: #cbcbcb"/>
     </g>
     <g id="line2d_16"/>
     <g id="text_9">
      <!-- 4000 -->
      <g transform="translate(44.33 298.454735) scale(0.14 -0.14)">
       <defs>
        <path id="DejaVuSans-34" d="M 2419 4116 
L 825 1625 
L 2419 1625 
L 2419 4116 
z
M 2253 4666 
L 3047 4666 
L 3047 1625 
L 3713 1625 
L 3713 1100 
L 3047 1100 
L 3047 0 
L 2419 0 
L 2419 1100 
L 313 1100 
L 313 1709 
L 2253 4666 
z
" transform="scale(0.015625)"/>
       </defs>
       <use xlink:href="#DejaVuSans-34"/>
       <use xlink:href="#DejaVuSans-30" x="63.623047"/>
       <use xlink:href="#DejaVuSans-30" x="127.246094"/>
       <use xlink:href="#DejaVuSans-30" x="190.869141"/>
      </g>
     </g>
    </g>
    <g id="ytick_3">
     <g id="line2d_17">
      <path d="M 83.46 254.19071 
L 551.97 254.19071 
" clip-path="url(#pfe096fd63b)" style="fill: none; stroke: #cbcbcb"/>
     </g>
     <g id="line2d_18"/>
     <g id="text_10">
      <!-- 6000 -->
      <g transform="translate(44.33 259.509616) scale(0.14 -0.14)">
       <defs>
        <path id="DejaVuSans-36" d="M 2113 2584 
Q 1688 2584 1439 2293 
Q 1191 2003 1191 1497 
Q 1191 994 1439 701 
Q 1688 409 2113 409 
Q 2538 409 2786 701 
Q 3034 994 3034 1497 
Q 3034 2003 2786 2293 
Q 2538 2584 2113 2584 
z
M 3366 4563 
L 3366 3988 
Q 3128 4100 2886 4159 
Q 2644 4219 2406 4219 
Q 1781 4219 1451 3797 
Q 1122 3375 1075 2522 
Q 1259 2794 1537 2939 
Q 1816 3084 2150 3084 
Q 2853 3084 3261 2657 
Q 3669 2231 3669 1497 
Q 3669 778 3244 343 
Q 2819 -91 2113 -91 
Q 1303 -91 875 529 
Q 447 1150 447 2328 
Q 447 3434 972 4092 
Q 1497 4750 2381 4750 
Q 2619 4750 2861 4703 
Q 3103 4656 3366 4563 
z
" transform="scale(0.015625)"/>
       </defs>
       <use xlink:href="#DejaVuSans-36"/>
       <use xlink:href="#DejaVuSans-30" x="63.623047"/>
       <use xlink:href="#DejaVuSans-30" x="127.246094"/>
       <use xlink:href="#DejaVuSans-30" x="190.869141"/>
      </g>
     </g>
    </g>
    <g id="ytick_4">
     <g id="line2d_19">
      <path d="M 83.46 215.245592 
L 551.97 215.245592 
" clip-path="url(#pfe096fd63b)" style="fill: none; stroke: #cbcbcb"/>
     </g>
     <g id="line2d_20"/>
     <g id="text_11">
      <!-- 8000 -->
      <g transform="translate(44.33 220.564498) scale(0.14 -0.14)">
       <use xlink:href="#DejaVuSans-38"/>
       <use xlink:href="#DejaVuSans-30" x="63.623047"/>
       <use xlink:href="#DejaVuSans-30" x="127.246094"/>
       <use xlink:href="#DejaVuSans-30" x="190.869141"/>
      </g>
     </g>
    </g>
    <g id="ytick_5">
     <g id="line2d_21">
      <path d="M 83.46 176.300473 
L 551.97 176.300473 
" clip-path="url(#pfe096fd63b)" style="fill: none; stroke: #cbcbcb"/>
     </g>
     <g id="line2d_22"/>
     <g id="text_12">
      <!-- 10000 -->
      <g transform="translate(35.4225 181.61938) scale(0.14 -0.14)">
       <use xlink:href="#DejaVuSans-31"/>
       <use xlink:href="#DejaVuSans-30" x="63.623047"/>
       <use xlink:href="#DejaVuSans-30" x="127.246094"/>
       <use xlink:href="#DejaVuSans-30" x="190.869141"/>
       <use xlink:href="#DejaVuSans-30" x="254.492188"/>
      </g>
     </g>
    </g>
    <g id="ytick_6">
     <g id="line2d_23">
      <path d="M 83.46 137.355355 
L 551.97 137.355355 
" clip-path="url(#pfe096fd63b)" style="fill: none; stroke: #cbcbcb"/>
     </g>
     <g id="line2d_24"/>
     <g id="text_13">
      <!-- 12000 -->
      <g transform="translate(35.4225 142.674261) scale(0.14 -0.14)">
       <use xlink:href="#DejaVuSans-31"/>
       <use xlink:href="#DejaVuSans-32" x="63.623047"/>
       <use xlink:href="#DejaVuSans-30" x="127.246094"/>
       <use xlink:href="#DejaVuSans-30" x="190.869141"/>
       <use xlink:href="#DejaVuSans-30" x="254.492188"/>
      </g>
     </g>
    </g>
    <g id="ytick_7">
     <g id="line2d_25">
      <path d="M 83.46 98.410237 
L 551.97 98.410237 
" clip-path="url(#pfe096fd63b)" style="fill: none; stroke: #cbcbcb"/>
     </g>
     <g id="line2d_26"/>
     <g id="text_14">
      <!-- 14000 -->
      <g transform="translate(35.4225 103.729143) scale(0.14 -0.14)">
       <use xlink:href="#DejaVuSans-31"/>
       <use xlink:href="#DejaVuSans-34" x="63.623047"/>
       <use xlink:href="#DejaVuSans-30" x="127.246094"/>
       <use xlink:href="#DejaVuSans-30" x="190.869141"/>
       <use xlink:href="#DejaVuSans-30" x="254.492188"/>
      </g>
     </g>
    </g>
    <g id="ytick_8">
     <g id="line2d_27">
      <path d="M 83.46 59.465118 
L 551.97 59.465118 
" clip-path="url(#pfe096fd63b)" style="fill: none; stroke: #cbcbcb"/>
     </g>
     <g id="line2d_28"/>
     <g id="text_15">
      <!-- 16000 -->
      <g transform="translate(35.4225 64.784025) scale(0.14 -0.14)">
       <use xlink:href="#DejaVuSans-31"/>
       <use xlink:href="#DejaVuSans-36" x="63.623047"/>
       <use xlink:href="#DejaVuSans-30" x="127.246094"/>
       <use xlink:href="#DejaVuSans-30" x="190.869141"/>
       <use xlink:href="#DejaVuSans-30" x="254.492188"/>
      </g>
     </g>
    </g>
    <g id="ytick_9">
     <g id="line2d_29">
      <path d="M 83.46 20.52 
L 551.97 20.52 
" clip-path="url(#pfe096fd63b)" style="fill: none; stroke: #cbcbcb"/>
     </g>
     <g id="line2d_30"/>
     <g id="text_16">
      <!-- 18000 -->
      <g transform="translate(35.4225 25.838906) scale(0.14 -0.14)">
       <use xlink:href="#DejaVuSans-31"/>
       <use xlink:href="#DejaVuSans-38" x="63.623047"/>
       <use xlink:href="#DejaVuSans-30" x="127.246094"/>
       <use xlink:href="#DejaVuSans-30" x="190.869141"/>
       <use xlink:href="#DejaVuSans-30" x="254.492188"/>
      </g>
     </g>
    </g>
    <g id="text_17">
     <!-- Intensity in a.u. -->
     <g transform="translate(27.928625 251.404503) rotate(-90) scale(0.168 -0.168)">
      <defs>
       <path id="DejaVuSans-49" d="M 628 4666 
L 1259 4666 
L 1259 0 
L 628 0 
L 628 4666 
z
" transform="scale(0.015625)"/>
       <path id="DejaVuSans-79" d="M 2059 -325 
Q 1816 -950 1584 -1140 
Q 1353 -1331 966 -1331 
L 506 -1331 
L 506 -850 
L 844 -850 
Q 1081 -850 1212 -737 
Q 1344 -625 1503 -206 
L 1606 56 
L 191 3500 
L 800 3500 
L 1894 763 
L 2988 3500 
L 3597 3500 
L 2059 -325 
z
" transform="scale(0.015625)"/>
       <path id="DejaVuSans-2e" d="M 684 794 
L 1344 794 
L 1344 0 
L 684 0 
L 684 794 
z
" transform="scale(0.015625)"/>
      </defs>
      <use xlink:href="#DejaVuSans-49"/>
      <use xlink:href="#DejaVuSans-6e" x="29.492188"/>
      <use xlink:href="#DejaVuSans-74" x="92.871094"/>
      <use xlink:href="#DejaVuSans-65" x="132.080078"/>
      <use xlink:href="#DejaVuSans-6e" x="193.603516"/>
      <use xlink:href="#DejaVuSans-73" x="256.982422"/>
      <use xlink:href="#DejaVuSans-69" x="309.082031"/>
      <use xlink:href="#DejaVuSans-74" x="336.865234"/>
      <use xlink:href="#DejaVuSans-79" x="376.074219"/>
      <use xlink:href="#DejaVuSans-20" x="435.253906"/>
      <use xlink:href="#DejaVuSans-69" x="467.041016"/>
      <use xlink:href="#DejaVuSans-6e" x="494.824219"/>
      <use xlink:href="#DejaVuSans-20" x="558.203125"/>
      <use xlink:href="#DejaVuSans-61" x="589.990234"/>
      <use xlink:href="#DejaVuSans-2e" x="651.269531"/>
      <use xlink:href="#DejaVuSans-75" x="683.056641"/>
      <use xlink:href="#DejaVuSans-2e" x="746.435547"/>
     </g>
    </g>
   </g>
   <g id="line2d_31">
    <path d="M -1 174.98777 
L -0.8718 175.171065 
L 3.8133 180.467601 
L 8.4984 183.407957 
L 13.1835 188.840802 
L 17.8686 191.372234 
L 22.5537 195.617252 
L 27.2388 193.767359 
L 31.9239 200.134886 
L 36.609 201.205877 
L 41.2941 206.833446 
L 45.9792 208.9949 
L 50.6643 214.116183 
L 55.3494 217.913332 
L 60.0345 219.510082 
L 64.7196 223.716155 
L 69.4047 221.379448 
L 74.0898 220.873161 
L 78.7749 222.937253 
L 83.46 228.54535 
L 88.1451 231.505179 
L 92.8302 234.815514 
L 97.5153 241.319348 
L 102.2004 244.337595 
L 106.8855 246.245906 
L 111.5706 249.673076 
L 116.2557 249.789912 
L 120.9408 248.32947 
L 125.6259 216.725506 
L 130.311 240.423611 
L 134.9961 248.193162 
L 139.6812 252.068201 
L 144.3663 255.086448 
L 149.0514 179.182412 
L 153.7365 184.10897 
L 158.4216 223.482484 
L 163.1067 244.610211 
L 167.7918 251.230881 
L 172.4769 239.742071 
L 177.162 40.089922 
L 181.8471 186.114643 
L 186.5322 247.64793 
L 191.2173 274.422699 
L 195.9024 277.479891 
L 200.5875 272.923312 
L 205.2726 279.894488 
L 209.9577 287.430369 
L 214.6428 288.81292 
L 219.3279 291.811694 
L 224.013 296.971923 
L 228.6981 297.809243 
L 233.3832 301.372721 
L 238.0683 302.034788 
L 242.7534 308.285479 
L 247.4385 309.43436 
L 252.1236 306.610839 
L 256.8087 309.609614 
L 261.4938 301.21694 
L 266.1789 297.244538 
L 270.864 298.023441 
L 275.5491 299.152849 
L 280.2342 250.705122 
L 284.9193 143.313958 
L 289.6044 234.3287 
L 294.2895 250.374088 
L 298.9746 262.388658 
L 303.6597 290.721231 
L 308.3448 109.996409 
L 313.0299 45.25015 
L 317.715 209.131208 
L 322.4001 287.430369 
L 327.0852 297.166648 
L 331.7703 317.612835 
L 336.4554 327.290697 
L 341.1405 329.646877 
L 345.8256 331.282572 
L 350.5107 332.392508 
L 355.1958 332.684596 
L 359.8809 331.165737 
L 364.566 334.145038 
L 369.2511 333.599806 
L 373.9362 335.741788 
L 378.6213 335.68337 
L 383.3064 337.611154 
L 387.9915 337.669571 
L 392.6766 338.292693 
L 397.3617 339.246849 
L 402.0468 339.246849 
L 406.7319 337.182757 
L 411.417 338.11744 
L 416.1021 339.402629 
L 420.7872 340.960434 
L 425.4723 340.707291 
L 434.8425 343.939735 
L 439.5276 342.90769 
L 444.2127 342.635074 
L 448.8978 340.785181 
L 453.5829 233.744523 
L 458.268 201.984779 
L 462.9531 281.082314 
L 467.6382 336.403855 
L 472.3233 342.946635 
L 477.0084 345.57543 
L 481.6935 346.120662 
L 486.3786 345.886991 
L 491.0637 344.58233 
L 495.7488 345.848046 
L 500.4339 345.069144 
L 505.119 344.73811 
L 509.8041 346.626948 
L 514.4892 345.672793 
L 519.1743 346.743784 
L 523.8594 345.848046 
L 528.5445 347.912137 
L 533.2296 348.223698 
L 537.9147 349.314162 
L 542.5998 347.639522 
L 547.2849 349.138909 
L 551.97 349.119436 
L 556.6551 349.547832 
L 561.3402 350.482515 
L 566.0253 351.027747 
L 570.7104 350.307262 
L 575.3955 351.96243 
L 577 351.488949 
L 577 351.488949 
" clip-path="url(#pfe096fd63b)" style="fill: none; stroke: #008fd5; stroke-width: 2"/>
   </g>
   <g id="line2d_32">
    <path d="M -1 181.067956 
L 3.8133 186.289896 
L 8.4984 190.242826 
L 22.5537 198.713389 
L 27.2388 201.887416 
L 41.2941 212.363653 
L 45.9792 215.323482 
L 60.0345 222.508856 
L 64.7196 224.689783 
L 78.7749 230.531551 
L 83.46 233.355072 
L 97.5153 244.396013 
L 102.2004 246.693775 
L 116.2557 249.342043 
L 120.9408 250.451979 
L 134.9961 254.424381 
L 139.6812 253.781786 
L 153.7365 245.914872 
L 158.4216 245.447531 
L 172.4769 250.393561 
L 177.162 254.502271 
L 191.2173 274.189028 
L 195.9024 279.271366 
L 209.9577 290.020219 
L 214.6428 293.096883 
L 228.6981 300.749599 
L 233.3832 302.988943 
L 247.4385 308.655458 
L 252.1236 308.558095 
L 266.1789 302.268459 
L 270.864 294.907831 
L 284.9193 257.014231 
L 289.6044 255.70957 
L 303.6597 285.716783 
L 308.3448 294.089984 
L 322.4001 314.244083 
L 327.0852 319.462728 
L 341.1405 330.542615 
L 345.8256 332.606706 
L 359.8809 333.93084 
L 364.566 334.592907 
L 378.6213 337.221702 
L 383.3064 337.864297 
L 406.7319 339.889443 
L 416.1021 340.746236 
L 420.7872 341.330412 
L 434.8425 343.569757 
L 439.5276 343.550284 
L 453.5829 341.174632 
L 458.268 341.447248 
L 472.3233 345.458595 
L 477.0084 346.101189 
L 491.0637 345.925936 
L 495.7488 345.984354 
L 509.8041 346.626948 
L 514.4892 347.055345 
L 528.5445 349.002601 
L 533.2296 349.353107 
L 547.2849 349.52836 
L 551.97 349.859393 
L 566.0253 351.650869 
L 570.7104 351.923485 
L 577 351.812251 
L 577 351.812251 
" clip-path="url(#pfe096fd63b)" style="fill: none; stroke: #fc4f30; stroke-width: 2"/>
   </g>
   <g id="LineCollection_1">
    <path clip-path="url(#pfe096fd63b)" style="fill: none; stroke: #008000; stroke-opacity: 0.4; stroke-width: 2"/>
    <path clip-path="url(#pfe096fd63b)" style="fill: none; stroke: #008000; stroke-opacity: 0.4; stroke-width: 2"/>
    <path clip-path="url(#pfe096fd63b)" style="fill: none; stroke: #008000; stroke-opacity: 0.4; stroke-width: 2"/>
    <path clip-path="url(#pfe096fd63b)" style="fill: none; stroke: #008000; stroke-opacity: 0.4; stroke-width: 2"/>
    <path clip-path="url(#pfe096fd63b)" style="fill: none; stroke: #008000; stroke-opacity: 0.4; stroke-width: 2"/>
    <path clip-path="url(#pfe096fd63b)" style="fill: none; stroke: #008000; stroke-opacity: 0.4; stroke-width: 2"/>
    <path clip-path="url(#pfe096fd63b)" style="fill: none; stroke: #008000; stroke-opacity: 0.4; stroke-width: 2"/>
    <path clip-path="url(#pfe096fd63b)" style="fill: none; stroke: #008000; stroke-opacity: 0.4; stroke-width: 2"/>
    <path clip-path="url(#pfe096fd63b)" style="fill: none; stroke: #008000; stroke-opacity: 0.4; stroke-width: 2"/>
    <path clip-path="url(#pfe096fd63b)" style="fill: none; stroke: #008000; stroke-opacity: 0.4; stroke-width: 2"/>
    <path d="M 151.37138 371.026065 
L 151.37138 -1 
" clip-path="url(#pfe096fd63b)" style="fill: none; stroke: #008000; stroke-opacity: 0.4; stroke-width: 2"/>
    <path d="M 155.998122 371.026065 
L 155.998122 -1 
" clip-path="url(#pfe096fd63b)" style="fill: none; stroke: #008000; stroke-opacity: 0.4; stroke-width: 2"/>
    <path d="M 178.231486 371.026065 
L 178.231486 -1 
" clip-path="url(#pfe096fd63b)" style="fill: none; stroke: #008000; stroke-opacity: 0.4; stroke-width: 2"/>
    <path d="M 284.517081 371.026065 
L 284.517081 -1 
" clip-path="url(#pfe096fd63b)" style="fill: none; stroke: #008000; stroke-opacity: 0.4; stroke-width: 2"/>
    <path d="M 298.042668 371.026065 
L 298.042668 -1 
" clip-path="url(#pfe096fd63b)" style="fill: none; stroke: #008000; stroke-opacity: 0.4; stroke-width: 2"/>
    <path d="M 312.100153 371.026065 
L 312.100153 -1 
" clip-path="url(#pfe096fd63b)" style="fill: none; stroke: #008000; stroke-opacity: 0.4; stroke-width: 2"/>
    <path d="M 326.722371 371.026065 
L 326.722371 -1 
" clip-path="url(#pfe096fd63b)" style="fill: none; stroke: #008000; stroke-opacity: 0.4; stroke-width: 2"/>
    <path d="M 415.450744 371.026065 
L 415.450744 -1 
" clip-path="url(#pfe096fd63b)" style="fill: none; stroke: #008000; stroke-opacity: 0.4; stroke-width: 2"/>
    <path d="M 456.824297 371.026065 
L 456.824297 -1 
" clip-path="url(#pfe096fd63b)" style="fill: none; stroke: #008000; stroke-opacity: 0.4; stroke-width: 2"/>
    <path d="M 465.207186 371.026065 
L 465.207186 -1 
" clip-path="url(#pfe096fd63b)" style="fill: none; stroke: #008000; stroke-opacity: 0.4; stroke-width: 2"/>
   </g>
   <g id="patch_3">
    <path d="M 83.46 351.553506 
L 83.46 20.52 
" style="fill: none; stroke: #f0f0f0; stroke-width: 3; stroke-linejoin: miter; stroke-linecap: square"/>
   </g>
   <g id="patch_4">
    <path d="M 551.97 351.553506 
L 551.97 20.52 
" style="fill: none; stroke: #f0f0f0; stroke-width: 3; stroke-linejoin: miter; stroke-linecap: square"/>
   </g>
   <g id="patch_5">
    <path d="M 83.46 351.553506 
L 551.97 351.553506 
" style="fill: none; stroke: #f0f0f0; stroke-width: 3; stroke-linejoin: miter; stroke-linecap: square"/>
   </g>
   <g id="patch_6">
    <path d="M 83.46 20.52 
L 551.97 20.52 
" style="fill: none; stroke: #f0f0f0; stroke-width: 3; stroke-linejoin: miter; stroke-linecap: square"/>
   </g>
   <g id="legend_1">
    <g id="patch_7">
     <path d="M 351.203438 93.368125 
L 542.17 93.368125 
Q 544.97 93.368125 544.97 90.568125 
L 544.97 30.32 
Q 544.97 27.52 542.17 27.52 
L 351.203438 27.52 
Q 348.403437 27.52 348.403437 30.32 
L 348.403437 90.568125 
Q 348.403437 93.368125 351.203438 93.368125 
z
" style="fill: #f0f0f0; opacity: 0.8; stroke: #cccccc; stroke-width: 0.5; stroke-linejoin: miter"/>
    </g>
    <g id="line2d_33">
     <path d="M 354.003438 38.857813 
L 368.003438 38.857813 
L 382.003438 38.857813 
" style="fill: none; stroke: #008fd5; stroke-width: 2"/>
    </g>
    <g id="text_18">
     <!-- data -->
     <g transform="translate(393.203438 43.757812) scale(0.14 -0.14)">
      <use xlink:href="#DejaVuSans-64"/>
      <use xlink:href="#DejaVuSans-61" x="63.476562"/>
      <use xlink:href="#DejaVuSans-74" x="124.755859"/>
      <use xlink:href="#DejaVuSans-61" x="163.964844"/>
     </g>
    </g>
    <g id="line2d_34">
     <path d="M 354.003438 59.407187 
L 368.003438 59.407187 
L 382.003438 59.407187 
" style="fill: none; stroke: #fc4f30; stroke-width: 2"/>
    </g>
    <g id="text_19">
     <!-- background -->
     <g transform="translate(393.203438 64.307187) scale(0.14 -0.14)">
      <defs>
       <path id="DejaVuSans-62" d="M 3116 1747 
Q 3116 2381 2855 2742 
Q 2594 3103 2138 3103 
Q 1681 3103 1420 2742 
Q 1159 2381 1159 1747 
Q 1159 1113 1420 752 
Q 1681 391 2138 391 
Q 2594 391 2855 752 
Q 3116 1113 3116 1747 
z
M 1159 2969 
Q 1341 3281 1617 3432 
Q 1894 3584 2278 3584 
Q 2916 3584 3314 3078 
Q 3713 2572 3713 1747 
Q 3713 922 3314 415 
Q 2916 -91 2278 -91 
Q 1894 -91 1617 61 
Q 1341 213 1159 525 
L 1159 0 
L 581 0 
L 581 4863 
L 1159 4863 
L 1159 2969 
z
" transform="scale(0.015625)"/>
       <path id="DejaVuSans-63" d="M 3122 3366 
L 3122 2828 
Q 2878 2963 2633 3030 
Q 2388 3097 2138 3097 
Q 1578 3097 1268 2742 
Q 959 2388 959 1747 
Q 959 1106 1268 751 
Q 1578 397 2138 397 
Q 2388 397 2633 464 
Q 2878 531 3122 666 
L 3122 134 
Q 2881 22 2623 -34 
Q 2366 -91 2075 -91 
Q 1284 -91 818 406 
Q 353 903 353 1747 
Q 353 2603 823 3093 
Q 1294 3584 2113 3584 
Q 2378 3584 2631 3529 
Q 2884 3475 3122 3366 
z
" transform="scale(0.015625)"/>
       <path id="DejaVuSans-6b" d="M 581 4863 
L 1159 4863 
L 1159 1991 
L 2875 3500 
L 3609 3500 
L 1753 1863 
L 3688 0 
L 2938 0 
L 1159 1709 
L 1159 0 
L 581 0 
L 581 4863 
z
" transform="scale(0.015625)"/>
      </defs>
      <use xlink:href="#DejaVuSans-62"/>
      <use xlink:href="#DejaVuSans-61" x="63.476562"/>
      <use xlink:href="#DejaVuSans-63" x="124.755859"/>
      <use xlink:href="#DejaVuSans-6b" x="179.736328"/>
      <use xlink:href="#DejaVuSans-67" x="237.646484"/>
      <use xlink:href="#DejaVuSans-72" x="301.123047"/>
      <use xlink:href="#DejaVuSans-6f" x="339.986328"/>
      <use xlink:href="#DejaVuSans-75" x="401.167969"/>
      <use xlink:href="#DejaVuSans-6e" x="464.546875"/>
      <use xlink:href="#DejaVuSans-64" x="527.925781"/>
     </g>
    </g>
    <g id="line2d_35">
     <path d="M 354.003438 79.956562 
L 382.003438 79.956562 
" style="fill: none; stroke: #008000; stroke-opacity: 0.4; stroke-width: 2"/>
    </g>
    <g id="text_20">
     <!-- peaks calc. 1st order -->
     <g transform="translate(393.203438 84.856562) scale(0.14 -0.14)">
      <defs>
       <path id="DejaVuSans-70" d="M 1159 525 
L 1159 -1331 
L 581 -1331 
L 581 3500 
L 1159 3500 
L 1159 2969 
Q 1341 3281 1617 3432 
Q 1894 3584 2278 3584 
Q 2916 3584 3314 3078 
Q 3713 2572 3713 1747 
Q 3713 922 3314 415 
Q 2916 -91 2278 -91 
Q 1894 -91 1617 61 
Q 1341 213 1159 525 
z
M 3116 1747 
Q 3116 2381 2855 2742 
Q 2594 3103 2138 3103 
Q 1681 3103 1420 2742 
Q 1159 2381 1159 1747 
Q 1159 1113 1420 752 
Q 1681 391 2138 391 
Q 2594 391 2855 752 
Q 3116 1113 3116 1747 
z
" transform="scale(0.015625)"/>
       <path id="DejaVuSans-6c" d="M 603 4863 
L 1178 4863 
L 1178 0 
L 603 0 
L 603 4863 
z
" transform="scale(0.015625)"/>
      </defs>
      <use xlink:href="#DejaVuSans-70"/>
      <use xlink:href="#DejaVuSans-65" x="63.476562"/>
      <use xlink:href="#DejaVuSans-61" x="125"/>
      <use xlink:href="#DejaVuSans-6b" x="186.279297"/>
      <use xlink:href="#DejaVuSans-73" x="244.189453"/>
      <use xlink:href="#DejaVuSans-20" x="296.289062"/>
      <use xlink:href="#DejaVuSans-63" x="328.076172"/>
      <use xlink:href="#DejaVuSans-61" x="383.056641"/>
      <use xlink:href="#DejaVuSans-6c" x="444.335938"/>
      <use xlink:href="#DejaVuSans-63" x="472.119141"/>
      <use xlink:href="#DejaVuSans-2e" x="527.099609"/>
      <use xlink:href="#DejaVuSans-20" x="558.886719"/>
      <use xlink:href="#DejaVuSans-31" x="590.673828"/>
      <use xlink:href="#DejaVuSans-73" x="654.296875"/>
      <use xlink:href="#DejaVuSans-74" x="706.396484"/>
      <use xlink:href="#DejaVuSans-20" x="745.605469"/>
      <use xlink:href="#DejaVuSans-6f" x="777.392578"/>
      <use xlink:href="#DejaVuSans-72" x="838.574219"/>
      <use xlink:href="#DejaVuSans-64" x="877.9375"/>
      <use xlink:href="#DejaVuSans-65" x="941.414062"/>
      <use xlink:href="#DejaVuSans-72" x="1002.9375"/>
     </g>
    </g>
   </g>
  </g>
 </g>
 <defs>
  <clipPath id="pfe096fd63b">
   <rect x="83.46" y="20.52" width="468.51" height="331.033506"/>
  </clipPath>
 </defs>
</svg>
